<?xml version="1.0" standalone="no"?>
<!DOCTYPE svg PUBLIC "-//W3C//DTD SVG 20010904//EN"
 "http://www.w3.org/TR/2001/REC-SVG-20010904/DTD/svg10.dtd">
<svg version="1.0" xmlns="http://www.w3.org/2000/svg"
 width="288.000000pt" height="363.000000pt" viewBox="0 0 288.000000 363.000000"
 preserveAspectRatio="xMidYMid meet">
<metadata>
Created by potrace 1.16, written by Peter Selinger 2001-2019
</metadata>
<g transform="translate(0.000000,363.000000) scale(0.100000,-0.100000)"
fill="#000000" stroke="none">
<path d="M92 1793 l3 -1678 345 0 345 0 3 1343 2 1342 650 0 650 0 2 -1342 3
-1343 345 0 345 0 3 1678 2 1677 -1350 0 -1350 0 2 -1677z"/>
<path d="M1030 890 l0 -70 53 0 c51 0 54 -2 114 -62 59 -60 62 -65 65 -118 l3
-55 56 -3 c53 -3 58 -6 112 -60 53 -54 56 -60 59 -112 l3 -55 50 -3 c46 -3 55
-8 113 -65 61 -60 62 -63 62 -115 l0 -53 68 3 67 3 3 53 c4 68 -8 82 -67 82
-44 0 -50 4 -103 57 -54 55 -57 61 -60 113 l-3 55 -52 3 c-50 3 -56 6 -110 63
-52 55 -59 66 -63 112 l-5 52 -51 3 c-47 3 -54 7 -112 65 -58 59 -61 65 -64
117 l-3 55 -67 3 -68 3 0 -71z"/>
<path d="M1034 707 c-3 -8 -4 -39 -2 -68 l3 -54 57 -3 c55 -3 58 -5 112 -62
50 -55 55 -64 58 -113 l3 -52 65 0 65 0 0 65 0 65 -51 3 c-47 3 -54 7 -112 65
-56 57 -61 66 -64 112 l-3 50 -63 3 c-47 2 -64 -1 -68 -11z"/>
<path d="M1497 714 c-4 -4 -7 -33 -7 -65 0 -64 5 -69 75 -69 41 0 47 -4 97
-60 46 -53 54 -67 58 -113 l5 -52 59 -3 c68 -4 76 3 76 65 0 67 -6 73 -64 73
-49 0 -54 2 -106 55 -51 52 -55 60 -60 113 l-5 57 -60 3 c-34 2 -64 0 -68 -4z"/>
<path d="M1727 713 c-4 -3 -7 -32 -7 -64 0 -63 6 -69 65 -69 60 0 65 6 65 76
l0 64 -58 0 c-32 0 -62 -3 -65 -7z"/>
<path d="M1037 483 c-4 -3 -7 -32 -7 -64 0 -64 5 -69 74 -69 53 0 66 13 66 66
0 69 -5 74 -69 74 -32 0 -61 -3 -64 -7z"/>
</g>
</svg>
