<svg xmlns="http://www.w3.org/2000/svg" xmlns:xlink="http://www.w3.org/1999/xlink" width="500" zoomAndPan="magnify" viewBox="0 0 375 374.999991" height="500" preserveAspectRatio="xMidYMid meet" version="1.0"><defs><g/><clipPath id="170c9c34e8"><path d="M 148.171875 103.15625 L 226.828125 103.15625 L 226.828125 201.3125 L 148.171875 201.3125 Z M 148.171875 103.15625 " clip-rule="nonzero"/></clipPath><clipPath id="77291671bd"><path d="M 168.402344 122.65625 L 206.597656 122.65625 L 206.597656 201.609375 L 168.402344 201.609375 Z M 168.402344 122.65625 " clip-rule="nonzero"/></clipPath><clipPath id="dd3f5dec34"><path d="M 175.160156 176.617188 L 199.910156 176.617188 L 199.910156 201.367188 L 175.160156 201.367188 Z M 175.160156 176.617188 " clip-rule="nonzero"/></clipPath><clipPath id="f9745ea96b"><path d="M 176.058594 176.617188 L 178.984375 176.617188 C 179.359375 176.617188 179.695312 176.933594 179.695312 177.328125 L 179.695312 180.109375 L 183.1875 183.664062 L 185.632812 183.664062 C 185.988281 183.664062 186.300781 183.957031 186.300781 184.332031 L 186.300781 186.839844 L 189.875 190.5 L 192.363281 190.5 C 192.71875 190.5 193.03125 190.792969 193.03125 191.167969 L 193.03125 193.695312 L 196.585938 197.3125 L 199.09375 197.3125 C 199.449219 197.3125 199.761719 197.605469 199.761719 197.980469 L 199.761719 200.742188 C 199.761719 201.097656 199.46875 201.410156 199.09375 201.410156 L 196.335938 201.410156 C 195.980469 201.410156 195.667969 201.117188 195.667969 200.742188 L 195.667969 198.171875 L 192.132812 194.574219 L 189.605469 194.574219 C 189.25 194.574219 188.933594 194.28125 188.933594 193.90625 L 188.933594 191.3125 L 185.445312 187.761719 L 182.875 187.761719 C 182.519531 187.761719 182.203125 187.46875 182.203125 187.089844 L 182.203125 184.457031 L 178.777344 180.964844 L 176.058594 180.964844 C 175.683594 180.964844 175.347656 180.652344 175.347656 180.253906 L 175.347656 177.328125 C 175.347656 176.953125 175.660156 176.617188 176.058594 176.617188 Z M 193.011719 186.859375 L 196.566406 190.457031 L 199.074219 190.457031 C 199.429688 190.457031 199.742188 190.75 199.742188 191.125 L 199.742188 193.886719 C 199.742188 194.242188 199.449219 194.554688 199.074219 194.554688 L 196.3125 194.554688 C 195.957031 194.554688 195.644531 194.261719 195.644531 193.886719 L 195.644531 191.335938 L 192.089844 187.738281 L 189.582031 187.738281 C 189.226562 187.738281 188.914062 187.445312 188.914062 187.070312 L 188.914062 184.3125 C 188.914062 183.957031 189.207031 183.640625 189.582031 183.640625 L 192.34375 183.640625 C 192.699219 183.640625 193.011719 183.933594 193.011719 184.3125 Z M 179.570312 186.859375 L 183.125 190.457031 L 185.632812 190.457031 C 185.988281 190.457031 186.300781 190.75 186.300781 191.125 L 186.300781 193.886719 C 186.300781 194.242188 186.007812 194.554688 185.632812 194.554688 L 182.875 194.554688 C 182.519531 194.554688 182.203125 194.261719 182.203125 193.886719 L 182.203125 191.335938 L 178.652344 187.738281 L 176.140625 187.738281 C 175.785156 187.738281 175.472656 187.445312 175.472656 187.070312 L 175.472656 184.3125 C 175.472656 183.957031 175.765625 183.640625 176.140625 183.640625 L 178.902344 183.640625 C 179.257812 183.640625 179.570312 183.933594 179.570312 184.3125 Z M 184.710938 198.652344 L 183.8125 198.652344 C 183.6875 198.652344 183.605469 198.753906 183.605469 198.859375 L 183.605469 199.757812 C 183.605469 199.882812 183.710938 199.96875 183.8125 199.96875 L 184.710938 199.96875 C 184.839844 199.96875 184.921875 199.863281 184.921875 199.757812 L 184.921875 198.859375 C 184.921875 198.734375 184.816406 198.652344 184.710938 198.652344 Z M 191.964844 197.855469 L 190 197.855469 C 189.75 197.855469 189.519531 198.066406 189.519531 198.335938 L 189.519531 200.300781 C 189.519531 200.554688 189.730469 200.78125 190 200.78125 L 191.964844 200.78125 C 192.21875 200.78125 192.445312 200.574219 192.445312 200.300781 L 192.445312 198.335938 C 192.445312 198.085938 192.238281 197.855469 191.964844 197.855469 Z M 196.710938 177.308594 L 198.675781 177.308594 C 198.925781 177.308594 199.15625 177.515625 199.15625 177.789062 L 199.15625 179.753906 C 199.15625 180.003906 198.949219 180.234375 198.675781 180.234375 L 196.710938 180.234375 C 196.460938 180.234375 196.230469 180.027344 196.230469 179.753906 L 196.230469 177.789062 C 196.230469 177.539062 196.441406 177.308594 196.710938 177.308594 Z M 190.816406 178.101562 L 191.714844 178.101562 C 191.839844 178.101562 191.925781 178.207031 191.925781 178.3125 L 191.925781 179.210938 C 191.925781 179.335938 191.820312 179.417969 191.714844 179.417969 L 190.816406 179.417969 C 190.691406 179.417969 190.609375 179.316406 190.609375 179.210938 L 190.609375 178.3125 C 190.609375 178.1875 190.710938 178.101562 190.816406 178.101562 Z M 183.519531 177.308594 L 185.484375 177.308594 C 185.738281 177.308594 185.96875 177.515625 185.96875 177.789062 L 185.96875 179.753906 C 185.96875 180.003906 185.757812 180.234375 185.484375 180.234375 L 183.519531 180.234375 C 183.269531 180.234375 183.039062 180.027344 183.039062 179.753906 L 183.039062 177.789062 C 183.039062 177.539062 183.25 177.308594 183.519531 177.308594 Z M 196.3125 183.640625 L 199.074219 183.640625 C 199.429688 183.640625 199.742188 183.933594 199.742188 184.3125 L 199.742188 187.070312 C 199.742188 187.425781 199.449219 187.738281 199.074219 187.738281 L 196.3125 187.738281 C 195.957031 187.738281 195.644531 187.445312 195.644531 187.070312 L 195.644531 184.3125 C 195.644531 183.957031 195.9375 183.640625 196.3125 183.640625 Z M 176.476562 197.753906 L 178.566406 197.753906 C 178.839844 197.753906 179.070312 197.980469 179.070312 198.253906 L 179.070312 200.34375 C 179.070312 200.617188 178.839844 200.847656 178.566406 200.847656 L 176.476562 200.847656 C 176.203125 200.847656 175.976562 200.617188 175.976562 200.34375 L 175.976562 198.253906 C 175.976562 197.980469 176.203125 197.753906 176.476562 197.753906 Z M 176.183594 190.519531 L 178.859375 190.519531 C 179.214844 190.519531 179.507812 190.8125 179.507812 191.167969 L 179.507812 193.84375 C 179.507812 194.199219 179.214844 194.492188 178.859375 194.492188 L 176.183594 194.492188 C 175.828125 194.492188 175.535156 194.199219 175.535156 193.84375 L 175.535156 191.167969 C 175.535156 190.8125 175.828125 190.519531 176.183594 190.519531 Z M 176.183594 190.519531 " clip-rule="evenodd"/></clipPath><linearGradient x1="12.207557" gradientTransform="matrix(2.090372, 0, 0, 2.090372, 175.34775, 176.618496)" y1="0.346752" x2="3.249359" gradientUnits="userSpaceOnUse" y2="13.975761" id="c80638e1f5"><stop stop-opacity="1" stop-color="rgb(34.498596%, 34.899902%, 35.699463%)" offset="0"/><stop stop-opacity="1" stop-color="rgb(34.498596%, 34.899902%, 35.699463%)" offset="0.125"/><stop stop-opacity="1" stop-color="rgb(34.490967%, 34.892273%, 35.691833%)" offset="0.140625"/><stop stop-opacity="1" stop-color="rgb(34.249878%, 34.646606%, 35.440063%)" offset="0.144531"/><stop stop-opacity="1" stop-color="rgb(34.014893%, 34.408569%, 35.197449%)" offset="0.148438"/><stop stop-opacity="1" stop-color="rgb(33.779907%, 34.170532%, 34.954834%)" offset="0.152344"/><stop stop-opacity="1" stop-color="rgb(33.544922%, 33.934021%, 34.712219%)" offset="0.15625"/><stop stop-opacity="1" stop-color="rgb(33.309937%, 33.695984%, 34.468079%)" offset="0.160156"/><stop stop-opacity="1" stop-color="rgb(33.074951%, 33.459473%, 34.225464%)" offset="0.164062"/><stop stop-opacity="1" stop-color="rgb(32.839966%, 33.221436%, 33.982849%)" offset="0.167969"/><stop stop-opacity="1" stop-color="rgb(32.60498%, 32.983398%, 33.740234%)" offset="0.171875"/><stop stop-opacity="1" stop-color="rgb(32.369995%, 32.745361%, 33.496094%)" offset="0.175781"/><stop stop-opacity="1" stop-color="rgb(32.136536%, 32.50885%, 33.253479%)" offset="0.179688"/><stop stop-opacity="1" stop-color="rgb(31.90155%, 32.270813%, 33.010864%)" offset="0.183594"/><stop stop-opacity="1" stop-color="rgb(31.666565%, 32.032776%, 32.76825%)" offset="0.1875"/><stop stop-opacity="1" stop-color="rgb(31.43158%, 31.794739%, 32.524109%)" offset="0.191406"/><stop stop-opacity="1" stop-color="rgb(31.196594%, 31.558228%, 32.281494%)" offset="0.195313"/><stop stop-opacity="1" stop-color="rgb(30.961609%, 31.32019%, 32.037354%)" offset="0.199219"/><stop stop-opacity="1" stop-color="rgb(30.726624%, 31.082153%, 31.794739%)" offset="0.203125"/><stop stop-opacity="1" stop-color="rgb(30.491638%, 30.844116%, 31.552124%)" offset="0.207031"/><stop stop-opacity="1" stop-color="rgb(30.256653%, 30.607605%, 31.309509%)" offset="0.210938"/><stop stop-opacity="1" stop-color="rgb(30.021667%, 30.369568%, 31.065369%)" offset="0.214844"/><stop stop-opacity="1" stop-color="rgb(29.786682%, 30.133057%, 30.822754%)" offset="0.21875"/><stop stop-opacity="1" stop-color="rgb(29.551697%, 29.89502%, 30.580139%)" offset="0.222656"/><stop stop-opacity="1" stop-color="rgb(29.316711%, 29.656982%, 30.337524%)" offset="0.226562"/><stop stop-opacity="1" stop-color="rgb(29.081726%, 29.418945%, 30.093384%)" offset="0.230469"/><stop stop-opacity="1" stop-color="rgb(28.848267%, 29.182434%, 29.850769%)" offset="0.234375"/><stop stop-opacity="1" stop-color="rgb(28.613281%, 28.944397%, 29.608154%)" offset="0.238281"/><stop stop-opacity="1" stop-color="rgb(28.378296%, 28.70636%, 29.36554%)" offset="0.242188"/><stop stop-opacity="1" stop-color="rgb(28.143311%, 28.468323%, 29.121399%)" offset="0.246094"/><stop stop-opacity="1" stop-color="rgb(27.908325%, 28.231812%, 28.878784%)" offset="0.25"/><stop stop-opacity="1" stop-color="rgb(27.67334%, 27.993774%, 28.634644%)" offset="0.253906"/><stop stop-opacity="1" stop-color="rgb(27.438354%, 27.755737%, 28.392029%)" offset="0.257812"/><stop stop-opacity="1" stop-color="rgb(27.203369%, 27.5177%, 28.149414%)" offset="0.261719"/><stop stop-opacity="1" stop-color="rgb(26.968384%, 27.281189%, 27.906799%)" offset="0.265625"/><stop stop-opacity="1" stop-color="rgb(26.733398%, 27.043152%, 27.662659%)" offset="0.269531"/><stop stop-opacity="1" stop-color="rgb(26.498413%, 26.806641%, 27.420044%)" offset="0.273438"/><stop stop-opacity="1" stop-color="rgb(26.263428%, 26.568604%, 27.177429%)" offset="0.277344"/><stop stop-opacity="1" stop-color="rgb(26.028442%, 26.330566%, 26.934814%)" offset="0.28125"/><stop stop-opacity="1" stop-color="rgb(25.793457%, 26.092529%, 26.690674%)" offset="0.285156"/><stop stop-opacity="1" stop-color="rgb(25.559998%, 25.856018%, 26.448059%)" offset="0.289063"/><stop stop-opacity="1" stop-color="rgb(25.325012%, 25.617981%, 26.205444%)" offset="0.292969"/><stop stop-opacity="1" stop-color="rgb(25.090027%, 25.379944%, 25.96283%)" offset="0.296875"/><stop stop-opacity="1" stop-color="rgb(24.855042%, 25.141907%, 25.718689%)" offset="0.300781"/><stop stop-opacity="1" stop-color="rgb(24.620056%, 24.905396%, 25.476074%)" offset="0.304688"/><stop stop-opacity="1" stop-color="rgb(24.385071%, 24.667358%, 25.231934%)" offset="0.308594"/><stop stop-opacity="1" stop-color="rgb(24.150085%, 24.429321%, 24.989319%)" offset="0.3125"/><stop stop-opacity="1" stop-color="rgb(23.9151%, 24.191284%, 24.746704%)" offset="0.316406"/><stop stop-opacity="1" stop-color="rgb(23.680115%, 23.954773%, 24.504089%)" offset="0.320313"/><stop stop-opacity="1" stop-color="rgb(23.445129%, 23.716736%, 24.259949%)" offset="0.324219"/><stop stop-opacity="1" stop-color="rgb(23.210144%, 23.480225%, 24.017334%)" offset="0.328125"/><stop stop-opacity="1" stop-color="rgb(22.975159%, 23.242188%, 23.774719%)" offset="0.332031"/><stop stop-opacity="1" stop-color="rgb(22.740173%, 23.00415%, 23.532104%)" offset="0.335938"/><stop stop-opacity="1" stop-color="rgb(22.505188%, 22.766113%, 23.287964%)" offset="0.339844"/><stop stop-opacity="1" stop-color="rgb(22.271729%, 22.529602%, 23.045349%)" offset="0.34375"/><stop stop-opacity="1" stop-color="rgb(22.036743%, 22.291565%, 22.802734%)" offset="0.347656"/><stop stop-opacity="1" stop-color="rgb(21.801758%, 22.053528%, 22.56012%)" offset="0.351563"/><stop stop-opacity="1" stop-color="rgb(21.566772%, 21.815491%, 22.315979%)" offset="0.355469"/><stop stop-opacity="1" stop-color="rgb(21.331787%, 21.578979%, 22.073364%)" offset="0.359375"/><stop stop-opacity="1" stop-color="rgb(21.096802%, 21.340942%, 21.83075%)" offset="0.363281"/><stop stop-opacity="1" stop-color="rgb(20.861816%, 21.104431%, 21.588135%)" offset="0.367188"/><stop stop-opacity="1" stop-color="rgb(20.626831%, 20.866394%, 21.343994%)" offset="0.371094"/><stop stop-opacity="1" stop-color="rgb(20.391846%, 20.628357%, 21.101379%)" offset="0.375"/><stop stop-opacity="1" stop-color="rgb(20.15686%, 20.39032%, 20.857239%)" offset="0.378906"/><stop stop-opacity="1" stop-color="rgb(19.921875%, 20.153809%, 20.614624%)" offset="0.382813"/><stop stop-opacity="1" stop-color="rgb(19.68689%, 19.915771%, 20.372009%)" offset="0.386719"/><stop stop-opacity="1" stop-color="rgb(19.451904%, 19.677734%, 20.129395%)" offset="0.390625"/><stop stop-opacity="1" stop-color="rgb(19.216919%, 19.439697%, 19.885254%)" offset="0.394531"/><stop stop-opacity="1" stop-color="rgb(18.983459%, 19.203186%, 19.642639%)" offset="0.398438"/><stop stop-opacity="1" stop-color="rgb(18.748474%, 18.965149%, 19.400024%)" offset="0.402344"/><stop stop-opacity="1" stop-color="rgb(18.513489%, 18.727112%, 19.15741%)" offset="0.40625"/><stop stop-opacity="1" stop-color="rgb(18.278503%, 18.489075%, 18.913269%)" offset="0.410156"/><stop stop-opacity="1" stop-color="rgb(18.043518%, 18.252563%, 18.670654%)" offset="0.414063"/><stop stop-opacity="1" stop-color="rgb(17.808533%, 18.014526%, 18.42804%)" offset="0.417969"/><stop stop-opacity="1" stop-color="rgb(17.573547%, 17.778015%, 18.185425%)" offset="0.421875"/><stop stop-opacity="1" stop-color="rgb(17.338562%, 17.539978%, 17.941284%)" offset="0.425781"/><stop stop-opacity="1" stop-color="rgb(17.103577%, 17.301941%, 17.698669%)" offset="0.429688"/><stop stop-opacity="1" stop-color="rgb(16.868591%, 17.063904%, 17.454529%)" offset="0.433594"/><stop stop-opacity="1" stop-color="rgb(16.633606%, 16.827393%, 17.211914%)" offset="0.4375"/><stop stop-opacity="1" stop-color="rgb(16.398621%, 16.589355%, 16.969299%)" offset="0.441406"/><stop stop-opacity="1" stop-color="rgb(16.163635%, 16.351318%, 16.726685%)" offset="0.445313"/><stop stop-opacity="1" stop-color="rgb(15.92865%, 16.113281%, 16.482544%)" offset="0.449219"/><stop stop-opacity="1" stop-color="rgb(15.69519%, 15.87677%, 16.239929%)" offset="0.453125"/><stop stop-opacity="1" stop-color="rgb(15.460205%, 15.638733%, 15.997314%)" offset="0.457031"/><stop stop-opacity="1" stop-color="rgb(15.22522%, 15.400696%, 15.7547%)" offset="0.460938"/><stop stop-opacity="1" stop-color="rgb(14.990234%, 15.162659%, 15.510559%)" offset="0.464844"/><stop stop-opacity="1" stop-color="rgb(14.755249%, 14.926147%, 15.267944%)" offset="0.46875"/><stop stop-opacity="1" stop-color="rgb(14.520264%, 14.68811%, 15.02533%)" offset="0.472656"/><stop stop-opacity="1" stop-color="rgb(14.285278%, 14.451599%, 14.782715%)" offset="0.476562"/><stop stop-opacity="1" stop-color="rgb(14.050293%, 14.213562%, 14.538574%)" offset="0.480469"/><stop stop-opacity="1" stop-color="rgb(13.815308%, 13.975525%, 14.295959%)" offset="0.484375"/><stop stop-opacity="1" stop-color="rgb(13.580322%, 13.737488%, 14.053345%)" offset="0.488281"/><stop stop-opacity="1" stop-color="rgb(13.345337%, 13.500977%, 13.81073%)" offset="0.492188"/><stop stop-opacity="1" stop-color="rgb(13.110352%, 13.262939%, 13.566589%)" offset="0.496094"/><stop stop-opacity="1" stop-color="rgb(12.875366%, 13.024902%, 13.323975%)" offset="0.5"/><stop stop-opacity="1" stop-color="rgb(12.640381%, 12.786865%, 13.079834%)" offset="0.503906"/><stop stop-opacity="1" stop-color="rgb(12.406921%, 12.550354%, 12.837219%)" offset="0.507813"/><stop stop-opacity="1" stop-color="rgb(12.171936%, 12.312317%, 12.594604%)" offset="0.511719"/><stop stop-opacity="1" stop-color="rgb(11.936951%, 12.07428%, 12.35199%)" offset="0.515625"/><stop stop-opacity="1" stop-color="rgb(11.701965%, 11.836243%, 12.107849%)" offset="0.519531"/><stop stop-opacity="1" stop-color="rgb(11.46698%, 11.599731%, 11.865234%)" offset="0.523438"/><stop stop-opacity="1" stop-color="rgb(11.231995%, 11.361694%, 11.62262%)" offset="0.527344"/><stop stop-opacity="1" stop-color="rgb(10.997009%, 11.125183%, 11.380005%)" offset="0.53125"/><stop stop-opacity="1" stop-color="rgb(10.762024%, 10.887146%, 11.135864%)" offset="0.535156"/><stop stop-opacity="1" stop-color="rgb(10.527039%, 10.649109%, 10.89325%)" offset="0.539063"/><stop stop-opacity="1" stop-color="rgb(10.292053%, 10.411072%, 10.650635%)" offset="0.542969"/><stop stop-opacity="1" stop-color="rgb(10.057068%, 10.174561%, 10.40802%)" offset="0.546875"/><stop stop-opacity="1" stop-color="rgb(9.822083%, 9.936523%, 10.163879%)" offset="0.550781"/><stop stop-opacity="1" stop-color="rgb(9.587097%, 9.698486%, 9.921265%)" offset="0.554688"/><stop stop-opacity="1" stop-color="rgb(9.352112%, 9.460449%, 9.677124%)" offset="0.558594"/><stop stop-opacity="1" stop-color="rgb(9.118652%, 9.223938%, 9.434509%)" offset="0.5625"/><stop stop-opacity="1" stop-color="rgb(8.883667%, 8.985901%, 9.191895%)" offset="0.566406"/><stop stop-opacity="1" stop-color="rgb(8.648682%, 8.747864%, 8.94928%)" offset="0.570313"/><stop stop-opacity="1" stop-color="rgb(8.413696%, 8.509827%, 8.705139%)" offset="0.574219"/><stop stop-opacity="1" stop-color="rgb(8.178711%, 8.273315%, 8.462524%)" offset="0.578125"/><stop stop-opacity="1" stop-color="rgb(7.943726%, 8.035278%, 8.21991%)" offset="0.582031"/><stop stop-opacity="1" stop-color="rgb(7.70874%, 7.798767%, 7.977295%)" offset="0.585938"/><stop stop-opacity="1" stop-color="rgb(7.473755%, 7.56073%, 7.733154%)" offset="0.589844"/><stop stop-opacity="1" stop-color="rgb(7.23877%, 7.322693%, 7.49054%)" offset="0.59375"/><stop stop-opacity="1" stop-color="rgb(7.003784%, 7.084656%, 7.247925%)" offset="0.597656"/><stop stop-opacity="1" stop-color="rgb(6.768799%, 6.848145%, 7.00531%)" offset="0.601562"/><stop stop-opacity="1" stop-color="rgb(6.533813%, 6.610107%, 6.761169%)" offset="0.605469"/><stop stop-opacity="1" stop-color="rgb(6.298828%, 6.37207%, 6.518555%)" offset="0.609375"/><stop stop-opacity="1" stop-color="rgb(6.063843%, 6.134033%, 6.27594%)" offset="0.613281"/><stop stop-opacity="1" stop-color="rgb(5.830383%, 5.897522%, 6.033325%)" offset="0.617188"/><stop stop-opacity="1" stop-color="rgb(5.595398%, 5.659485%, 5.789185%)" offset="0.621094"/><stop stop-opacity="1" stop-color="rgb(5.360413%, 5.421448%, 5.54657%)" offset="0.625"/><stop stop-opacity="1" stop-color="rgb(5.125427%, 5.183411%, 5.302429%)" offset="0.628906"/><stop stop-opacity="1" stop-color="rgb(4.890442%, 4.946899%, 5.059814%)" offset="0.632812"/><stop stop-opacity="1" stop-color="rgb(4.655457%, 4.708862%, 4.8172%)" offset="0.636719"/><stop stop-opacity="1" stop-color="rgb(4.420471%, 4.472351%, 4.574585%)" offset="0.640625"/><stop stop-opacity="1" stop-color="rgb(4.185486%, 4.234314%, 4.330444%)" offset="0.644531"/><stop stop-opacity="1" stop-color="rgb(3.9505%, 3.996277%, 4.08783%)" offset="0.648437"/><stop stop-opacity="1" stop-color="rgb(3.715515%, 3.75824%, 3.845215%)" offset="0.652344"/><stop stop-opacity="1" stop-color="rgb(3.48053%, 3.521729%, 3.6026%)" offset="0.65625"/><stop stop-opacity="1" stop-color="rgb(3.245544%, 3.283691%, 3.358459%)" offset="0.660156"/><stop stop-opacity="1" stop-color="rgb(3.010559%, 3.045654%, 3.115845%)" offset="0.664062"/><stop stop-opacity="1" stop-color="rgb(2.775574%, 2.807617%, 2.87323%)" offset="0.667969"/><stop stop-opacity="1" stop-color="rgb(2.542114%, 2.571106%, 2.630615%)" offset="0.671875"/><stop stop-opacity="1" stop-color="rgb(2.307129%, 2.333069%, 2.386475%)" offset="0.675781"/><stop stop-opacity="1" stop-color="rgb(2.072144%, 2.096558%, 2.14386%)" offset="0.679687"/><stop stop-opacity="1" stop-color="rgb(1.837158%, 1.858521%, 1.899719%)" offset="0.683594"/><stop stop-opacity="1" stop-color="rgb(1.602173%, 1.620483%, 1.657104%)" offset="0.6875"/><stop stop-opacity="1" stop-color="rgb(1.367188%, 1.382446%, 1.41449%)" offset="0.691406"/><stop stop-opacity="1" stop-color="rgb(1.132202%, 1.145935%, 1.171875%)" offset="0.695312"/><stop stop-opacity="1" stop-color="rgb(0.897217%, 0.907898%, 0.927734%)" offset="0.699219"/><stop stop-opacity="1" stop-color="rgb(0.662231%, 0.669861%, 0.68512%)" offset="0.703125"/><stop stop-opacity="1" stop-color="rgb(0.427246%, 0.431824%, 0.442505%)" offset="0.707031"/><stop stop-opacity="1" stop-color="rgb(0.192261%, 0.195312%, 0.19989%)" offset="0.710938"/><stop stop-opacity="1" stop-color="rgb(0.0961304%, 0.0976562%, 0.0991821%)" offset="0.71875"/><stop stop-opacity="1" stop-color="rgb(0%, 0%, 0%)" offset="0.75"/><stop stop-opacity="1" stop-color="rgb(0%, 0%, 0%)" offset="1"/></linearGradient></defs><g fill="#000000" fill-opacity="1"><g transform="translate(147.357209, 252.136275)"><g><path d="M 0.671875 -5.71875 L 3.28125 -5.71875 C 3.894531 -5.71875 4.441406 -5.597656 4.921875 -5.359375 C 5.398438 -5.128906 5.769531 -4.796875 6.03125 -4.359375 C 6.300781 -3.929688 6.4375 -3.429688 6.4375 -2.859375 C 6.4375 -2.285156 6.300781 -1.785156 6.03125 -1.359375 C 5.769531 -0.929688 5.398438 -0.597656 4.921875 -0.359375 C 4.441406 -0.117188 3.894531 0 3.28125 0 L 0.671875 0 Z M 3.21875 -1.09375 C 3.78125 -1.09375 4.234375 -1.25 4.578125 -1.5625 C 4.921875 -1.882812 5.09375 -2.316406 5.09375 -2.859375 C 5.09375 -3.398438 4.921875 -3.832031 4.578125 -4.15625 C 4.234375 -4.476562 3.78125 -4.640625 3.21875 -4.640625 L 2 -4.640625 L 2 -1.09375 Z M 3.21875 -1.09375 "/></g></g></g><g fill="#000000" fill-opacity="1"><g transform="translate(154.837088, 252.136275)"><g><path d="M 5.109375 -1.0625 L 5.109375 0 L 0.671875 0 L 0.671875 -5.71875 L 5 -5.71875 L 5 -4.65625 L 2 -4.65625 L 2 -3.421875 L 4.65625 -3.421875 L 4.65625 -2.390625 L 2 -2.390625 L 2 -1.0625 Z M 5.109375 -1.0625 "/></g></g></g><g fill="#000000" fill-opacity="1"><g transform="translate(161.051274, 252.136275)"><g><path d="M 2.5625 0.09375 C 2.101562 0.09375 1.660156 0.0351562 1.234375 -0.078125 C 0.816406 -0.203125 0.484375 -0.363281 0.234375 -0.5625 L 0.671875 -1.5625 C 0.921875 -1.382812 1.210938 -1.238281 1.546875 -1.125 C 1.890625 -1.019531 2.226562 -0.96875 2.5625 -0.96875 C 2.9375 -0.96875 3.210938 -1.019531 3.390625 -1.125 C 3.578125 -1.238281 3.671875 -1.390625 3.671875 -1.578125 C 3.671875 -1.710938 3.613281 -1.820312 3.5 -1.90625 C 3.394531 -2 3.257812 -2.070312 3.09375 -2.125 C 2.9375 -2.1875 2.710938 -2.25 2.421875 -2.3125 C 1.984375 -2.414062 1.625 -2.519531 1.34375 -2.625 C 1.070312 -2.726562 0.835938 -2.894531 0.640625 -3.125 C 0.441406 -3.351562 0.34375 -3.65625 0.34375 -4.03125 C 0.34375 -4.363281 0.429688 -4.664062 0.609375 -4.9375 C 0.785156 -5.207031 1.054688 -5.421875 1.421875 -5.578125 C 1.785156 -5.734375 2.226562 -5.8125 2.75 -5.8125 C 3.113281 -5.8125 3.46875 -5.769531 3.8125 -5.6875 C 4.164062 -5.601562 4.472656 -5.476562 4.734375 -5.3125 L 4.328125 -4.3125 C 3.796875 -4.601562 3.269531 -4.75 2.75 -4.75 C 2.375 -4.75 2.097656 -4.6875 1.921875 -4.5625 C 1.742188 -4.445312 1.65625 -4.296875 1.65625 -4.109375 C 1.65625 -3.910156 1.753906 -3.757812 1.953125 -3.65625 C 2.160156 -3.5625 2.476562 -3.472656 2.90625 -3.390625 C 3.34375 -3.285156 3.695312 -3.179688 3.96875 -3.078125 C 4.25 -2.972656 4.488281 -2.804688 4.6875 -2.578125 C 4.882812 -2.359375 4.984375 -2.054688 4.984375 -1.671875 C 4.984375 -1.347656 4.890625 -1.050781 4.703125 -0.78125 C 4.523438 -0.507812 4.253906 -0.296875 3.890625 -0.140625 C 3.523438 0.015625 3.082031 0.09375 2.5625 0.09375 Z M 2.5625 0.09375 "/></g></g></g><g fill="#000000" fill-opacity="1"><g transform="translate(166.995983, 252.136275)"><g><path d="M 0.671875 -5.71875 L 2 -5.71875 L 2 0 L 0.671875 0 Z M 0.671875 -5.71875 "/></g></g></g><g fill="#000000" fill-opacity="1"><g transform="translate(170.409295, 252.136275)"><g><path d="M 4.546875 -2.953125 L 5.75 -2.953125 L 5.75 -0.625 C 5.4375 -0.394531 5.078125 -0.21875 4.671875 -0.09375 C 4.265625 0.03125 3.851562 0.09375 3.4375 0.09375 C 2.84375 0.09375 2.304688 -0.03125 1.828125 -0.28125 C 1.359375 -0.53125 0.988281 -0.878906 0.71875 -1.328125 C 0.445312 -1.785156 0.3125 -2.296875 0.3125 -2.859375 C 0.3125 -3.421875 0.445312 -3.925781 0.71875 -4.375 C 0.988281 -4.832031 1.363281 -5.1875 1.84375 -5.4375 C 2.320312 -5.6875 2.863281 -5.8125 3.46875 -5.8125 C 3.96875 -5.8125 4.421875 -5.726562 4.828125 -5.5625 C 5.234375 -5.394531 5.578125 -5.148438 5.859375 -4.828125 L 5.015625 -4.046875 C 4.597656 -4.472656 4.101562 -4.6875 3.53125 -4.6875 C 3.164062 -4.6875 2.84375 -4.609375 2.5625 -4.453125 C 2.28125 -4.304688 2.054688 -4.09375 1.890625 -3.8125 C 1.734375 -3.539062 1.65625 -3.222656 1.65625 -2.859375 C 1.65625 -2.503906 1.734375 -2.1875 1.890625 -1.90625 C 2.054688 -1.632812 2.273438 -1.421875 2.546875 -1.265625 C 2.828125 -1.109375 3.148438 -1.03125 3.515625 -1.03125 C 3.890625 -1.03125 4.234375 -1.113281 4.546875 -1.28125 Z M 4.546875 -2.953125 "/></g></g></g><g fill="#000000" fill-opacity="1"><g transform="translate(177.440056, 252.136275)"><g><path d="M 5.921875 -5.71875 L 5.921875 0 L 4.84375 0 L 1.984375 -3.46875 L 1.984375 0 L 0.671875 0 L 0.671875 -5.71875 L 1.765625 -5.71875 L 4.609375 -2.25 L 4.609375 -5.71875 Z M 5.921875 -5.71875 "/></g></g></g><g fill="#000000" fill-opacity="1"><g transform="translate(184.772962, 252.136275)"><g/></g></g><g fill="#000000" fill-opacity="1"><g transform="translate(187.818809, 252.136275)"><g><path d="M 0.671875 -6.0625 L 1.84375 -6.0625 L 1.84375 1.578125 L 0.671875 1.578125 Z M 0.671875 -6.0625 "/></g></g></g><g fill="#000000" fill-opacity="1"><g transform="translate(191.076965, 252.136275)"><g/></g></g><g fill="#000000" fill-opacity="1"><g transform="translate(194.122813, 252.136275)"><g><path d="M 2.5625 0.09375 C 2.101562 0.09375 1.660156 0.0351562 1.234375 -0.078125 C 0.816406 -0.203125 0.484375 -0.363281 0.234375 -0.5625 L 0.671875 -1.5625 C 0.921875 -1.382812 1.210938 -1.238281 1.546875 -1.125 C 1.890625 -1.019531 2.226562 -0.96875 2.5625 -0.96875 C 2.9375 -0.96875 3.210938 -1.019531 3.390625 -1.125 C 3.578125 -1.238281 3.671875 -1.390625 3.671875 -1.578125 C 3.671875 -1.710938 3.613281 -1.820312 3.5 -1.90625 C 3.394531 -2 3.257812 -2.070312 3.09375 -2.125 C 2.9375 -2.1875 2.710938 -2.25 2.421875 -2.3125 C 1.984375 -2.414062 1.625 -2.519531 1.34375 -2.625 C 1.070312 -2.726562 0.835938 -2.894531 0.640625 -3.125 C 0.441406 -3.351562 0.34375 -3.65625 0.34375 -4.03125 C 0.34375 -4.363281 0.429688 -4.664062 0.609375 -4.9375 C 0.785156 -5.207031 1.054688 -5.421875 1.421875 -5.578125 C 1.785156 -5.734375 2.226562 -5.8125 2.75 -5.8125 C 3.113281 -5.8125 3.46875 -5.769531 3.8125 -5.6875 C 4.164062 -5.601562 4.472656 -5.476562 4.734375 -5.3125 L 4.328125 -4.3125 C 3.796875 -4.601562 3.269531 -4.75 2.75 -4.75 C 2.375 -4.75 2.097656 -4.6875 1.921875 -4.5625 C 1.742188 -4.445312 1.65625 -4.296875 1.65625 -4.109375 C 1.65625 -3.910156 1.753906 -3.757812 1.953125 -3.65625 C 2.160156 -3.5625 2.476562 -3.472656 2.90625 -3.390625 C 3.34375 -3.285156 3.695312 -3.179688 3.96875 -3.078125 C 4.25 -2.972656 4.488281 -2.804688 4.6875 -2.578125 C 4.882812 -2.359375 4.984375 -2.054688 4.984375 -1.671875 C 4.984375 -1.347656 4.890625 -1.050781 4.703125 -0.78125 C 4.523438 -0.507812 4.253906 -0.296875 3.890625 -0.140625 C 3.523438 0.015625 3.082031 0.09375 2.5625 0.09375 Z M 2.5625 0.09375 "/></g></g></g><g fill="#000000" fill-opacity="1"><g transform="translate(200.067522, 252.136275)"><g><path d="M 5.109375 -1.0625 L 5.109375 0 L 0.671875 0 L 0.671875 -5.71875 L 5 -5.71875 L 5 -4.65625 L 2 -4.65625 L 2 -3.421875 L 4.65625 -3.421875 L 4.65625 -2.390625 L 2 -2.390625 L 2 -1.0625 Z M 5.109375 -1.0625 "/></g></g></g><g fill="#000000" fill-opacity="1"><g transform="translate(206.28171, 252.136275)"><g><path d="M 5.921875 -5.71875 L 5.921875 0 L 4.84375 0 L 1.984375 -3.46875 L 1.984375 0 L 0.671875 0 L 0.671875 -5.71875 L 1.765625 -5.71875 L 4.609375 -2.25 L 4.609375 -5.71875 Z M 5.921875 -5.71875 "/></g></g></g><g fill="#000000" fill-opacity="1"><g transform="translate(213.614615, 252.136275)"><g><path d="M 2.5625 0.09375 C 2.101562 0.09375 1.660156 0.0351562 1.234375 -0.078125 C 0.816406 -0.203125 0.484375 -0.363281 0.234375 -0.5625 L 0.671875 -1.5625 C 0.921875 -1.382812 1.210938 -1.238281 1.546875 -1.125 C 1.890625 -1.019531 2.226562 -0.96875 2.5625 -0.96875 C 2.9375 -0.96875 3.210938 -1.019531 3.390625 -1.125 C 3.578125 -1.238281 3.671875 -1.390625 3.671875 -1.578125 C 3.671875 -1.710938 3.613281 -1.820312 3.5 -1.90625 C 3.394531 -2 3.257812 -2.070312 3.09375 -2.125 C 2.9375 -2.1875 2.710938 -2.25 2.421875 -2.3125 C 1.984375 -2.414062 1.625 -2.519531 1.34375 -2.625 C 1.070312 -2.726562 0.835938 -2.894531 0.640625 -3.125 C 0.441406 -3.351562 0.34375 -3.65625 0.34375 -4.03125 C 0.34375 -4.363281 0.429688 -4.664062 0.609375 -4.9375 C 0.785156 -5.207031 1.054688 -5.421875 1.421875 -5.578125 C 1.785156 -5.734375 2.226562 -5.8125 2.75 -5.8125 C 3.113281 -5.8125 3.46875 -5.769531 3.8125 -5.6875 C 4.164062 -5.601562 4.472656 -5.476562 4.734375 -5.3125 L 4.328125 -4.3125 C 3.796875 -4.601562 3.269531 -4.75 2.75 -4.75 C 2.375 -4.75 2.097656 -4.6875 1.921875 -4.5625 C 1.742188 -4.445312 1.65625 -4.296875 1.65625 -4.109375 C 1.65625 -3.910156 1.753906 -3.757812 1.953125 -3.65625 C 2.160156 -3.5625 2.476562 -3.472656 2.90625 -3.390625 C 3.34375 -3.285156 3.695312 -3.179688 3.96875 -3.078125 C 4.25 -2.972656 4.488281 -2.804688 4.6875 -2.578125 C 4.882812 -2.359375 4.984375 -2.054688 4.984375 -1.671875 C 4.984375 -1.347656 4.890625 -1.050781 4.703125 -0.78125 C 4.523438 -0.507812 4.253906 -0.296875 3.890625 -0.140625 C 3.523438 0.015625 3.082031 0.09375 2.5625 0.09375 Z M 2.5625 0.09375 "/></g></g></g><g fill="#000000" fill-opacity="1"><g transform="translate(219.559325, 252.136275)"><g><path d="M 5.109375 -1.0625 L 5.109375 0 L 0.671875 0 L 0.671875 -5.71875 L 5 -5.71875 L 5 -4.65625 L 2 -4.65625 L 2 -3.421875 L 4.65625 -3.421875 L 4.65625 -2.390625 L 2 -2.390625 L 2 -1.0625 Z M 5.109375 -1.0625 "/></g></g></g><g fill="#000000" fill-opacity="1"><g transform="translate(225.771902, 252.136275)"><g/></g></g><g fill="#000000" fill-opacity="1"><g transform="translate(153.346813, 234.231709)"><g><path d="M 14.125 0 L 11.03125 0 L 4.671875 -8.5 L 4.671875 0 L 1.375 0 L 1.375 -13.8125 L 4.484375 -13.8125 L 10.859375 -5.28125 L 10.859375 -13.8125 L 14.125 -13.8125 Z M 14.125 0 "/></g></g></g><g fill="#000000" fill-opacity="1"><g transform="translate(168.848808, 234.231709)"><g><path d="M 12.203125 -11.046875 L 4.890625 -11.046875 L 4.890625 -8.3125 L 11.484375 -8.3125 L 11.484375 -5.546875 L 4.890625 -5.546875 L 4.890625 -2.765625 L 12.40625 -2.765625 L 12.40625 0 L 1.375 0 L 1.375 -13.8125 L 12.203125 -13.8125 Z M 12.203125 -11.046875 "/></g></g></g><g fill="#000000" fill-opacity="1"><g transform="translate(182.141863, 234.231709)"><g><path d="M 6.6875 -13.96875 C 8.75 -13.96875 10.566406 -13.457031 12.140625 -12.4375 L 10.8125 -9.6875 C 10.09375 -10.113281 9.316406 -10.457031 8.484375 -10.71875 C 7.660156 -10.988281 6.960938 -11.125 6.390625 -11.125 C 5.378906 -11.125 4.875 -10.789062 4.875 -10.125 C 4.875 -9.6875 5.125 -9.335938 5.625 -9.078125 C 6.125 -8.816406 6.734375 -8.585938 7.453125 -8.390625 C 8.171875 -8.203125 8.882812 -7.972656 9.59375 -7.703125 C 10.3125 -7.429688 10.921875 -6.992188 11.421875 -6.390625 C 11.921875 -5.785156 12.171875 -5.023438 12.171875 -4.109375 C 12.171875 -2.773438 11.648438 -1.734375 10.609375 -0.984375 C 9.578125 -0.242188 8.257812 0.125 6.65625 0.125 C 5.507812 0.125 4.375 -0.0703125 3.25 -0.46875 C 2.132812 -0.863281 1.160156 -1.40625 0.328125 -2.09375 L 1.703125 -4.796875 C 2.398438 -4.191406 3.21875 -3.691406 4.15625 -3.296875 C 5.101562 -2.910156 5.945312 -2.71875 6.6875 -2.71875 C 7.25 -2.71875 7.6875 -2.816406 8 -3.015625 C 8.320312 -3.222656 8.484375 -3.523438 8.484375 -3.921875 C 8.484375 -4.304688 8.300781 -4.625 7.9375 -4.875 C 7.582031 -5.132812 7.132812 -5.328125 6.59375 -5.453125 C 6.050781 -5.578125 5.460938 -5.742188 4.828125 -5.953125 C 4.203125 -6.171875 3.617188 -6.40625 3.078125 -6.65625 C 2.535156 -6.90625 2.082031 -7.300781 1.71875 -7.84375 C 1.363281 -8.382812 1.1875 -9.039062 1.1875 -9.8125 C 1.1875 -11.070312 1.6875 -12.078125 2.6875 -12.828125 C 3.695312 -13.585938 5.03125 -13.96875 6.6875 -13.96875 Z M 6.6875 -13.96875 "/></g></g></g><g fill="#000000" fill-opacity="1"><g transform="translate(194.843248, 234.231709)"><g><path d="M 11.9375 -10.984375 L 7.78125 -10.984375 L 7.78125 0 L 4.265625 0 L 4.265625 -10.984375 L 0.140625 -10.984375 L 0.140625 -13.828125 L 11.9375 -13.828125 Z M 11.9375 -10.984375 "/></g></g></g><g fill="#000000" fill-opacity="1"><g transform="translate(206.893784, 234.231709)"><g><path d="M 10.5625 -2.546875 L 4.515625 -2.546875 L 3.515625 0 L -0.09375 0 L 5.859375 -13.8125 L 9.46875 -13.8125 L 15.296875 0 L 11.546875 0 Z M 9.53125 -5.203125 L 7.5625 -10.328125 L 5.546875 -5.203125 Z M 9.53125 -5.203125 "/></g></g></g><g clip-path="url(#170c9c34e8)"><path fill="#000000" d="M 148.171875 103.15625 L 227.273438 103.15625 L 227.273438 201.59375 L 148.171875 201.59375 Z M 148.171875 103.15625 " fill-opacity="1" fill-rule="nonzero"/></g><g clip-path="url(#77291671bd)"><path fill="#ffffff" d="M 168.402344 122.65625 L 207.074219 122.65625 L 207.074219 201.757812 L 168.402344 201.757812 Z M 168.402344 122.65625 " fill-opacity="1" fill-rule="nonzero"/></g><g clip-path="url(#dd3f5dec34)"><g clip-path="url(#f9745ea96b)"><path fill="url(#c80638e1f5)" d="M 175.347656 176.617188 L 175.347656 201.367188 L 199.761719 201.367188 L 199.761719 176.617188 Z M 175.347656 176.617188 " fill-rule="nonzero"/></g></g></svg>