<?xml version="1.0" standalone="no"?>
<!DOCTYPE svg PUBLIC "-//W3C//DTD SVG 20010904//EN"
 "http://www.w3.org/TR/2001/REC-SVG-20010904/DTD/svg10.dtd">
<svg version="1.0" xmlns="http://www.w3.org/2000/svg"
 width="295.000000pt" height="538.000000pt" viewBox="0 0 295.000000 538.000000"
 preserveAspectRatio="xMidYMid meet">
<metadata>
Created by potrace 1.16, written by Peter Selinger 2001-2019
</metadata>
<g transform="translate(0.000000,538.000000) scale(0.100000,-0.100000)"
fill="#000000" stroke="none">
<path d="M110 3670 l0 -1680 350 0 350 0 0 1345 0 1345 650 0 650 0 2 -1342 3
-1343 348 -3 347 -2 0 1680 0 1680 -1350 0 -1350 0 0 -1680z"/>
<path d="M1054 2827 c-3 -8 -4 -41 -2 -73 l3 -59 55 -3 c52 -3 58 -6 112 -59
54 -54 57 -59 60 -112 l3 -56 57 -3 c56 -3 58 -4 112 -64 50 -55 55 -65 58
-112 l3 -51 50 -3 c46 -3 55 -8 113 -65 61 -60 62 -63 62 -115 l0 -53 68 3 67
3 0 60 0 60 -50 3 c-46 3 -55 8 -112 65 -59 58 -63 64 -63 107 0 58 -12 70
-71 70 -45 0 -50 3 -103 61 -50 56 -55 66 -58 113 l-3 51 -51 3 c-47 3 -54 7
-112 65 -58 59 -61 65 -64 117 l-3 55 -63 3 c-46 2 -64 -1 -68 -11z"/>
<path d="M1054 2587 c-3 -8 -4 -39 -2 -68 l3 -54 56 -5 c53 -5 58 -8 112 -66
50 -54 56 -65 59 -110 l3 -49 65 0 65 0 0 65 0 65 -56 5 c-53 5 -58 8 -112 66
-50 54 -56 65 -59 110 l-3 49 -63 3 c-47 2 -64 -1 -68 -11z"/>
<path d="M1514 2586 c-3 -7 -4 -38 -2 -67 l3 -54 50 -3 c46 -3 55 -8 112 -64
58 -58 62 -65 65 -112 l3 -51 59 -3 c69 -4 76 3 76 69 0 57 -12 69 -70 69 -42
0 -50 4 -103 58 -51 51 -57 62 -57 99 0 68 -5 73 -71 73 -41 0 -61 -4 -65 -14z"/>
<path d="M1744 2586 c-3 -7 -4 -38 -2 -67 l3 -54 60 0 60 0 3 68 3 67 -61 0
c-42 0 -62 -4 -66 -14z"/>
<path d="M1062 2361 c-9 -5 -12 -26 -10 -67 l3 -59 59 -3 c41 -2 62 1 67 10
13 20 11 102 -3 116 -14 14 -96 16 -116 3z"/>
<path d="M1441 1350 c-94 -20 -147 -97 -123 -178 16 -54 37 -69 144 -106 76
-25 94 -35 96 -53 7 -51 -70 -53 -162 -5 -28 15 -54 28 -58 30 -4 2 -18 -19
-32 -47 l-26 -50 34 -20 c91 -56 227 -69 306 -28 125 64 98 216 -48 261 -88
28 -122 46 -122 67 0 40 68 34 182 -15 23 -11 74 86 54 103 -41 34 -171 56
-245 41z"/>
<path d="M340 1110 l0 -240 60 0 59 0 3 135 3 136 100 -135 100 -135 58 -1 57
0 0 240 0 240 -60 0 -59 0 -3 -135 -3 -136 -100 135 -100 135 -57 1 -58 0 0
-240z"/>
<path d="M870 1110 l0 -240 190 0 190 0 0 50 0 50 -125 0 -125 0 0 45 0 45
110 0 110 0 0 50 0 50 -110 0 -110 0 0 45 0 45 120 0 120 0 0 50 0 50 -185 0
-185 0 0 -240z"/>
<path d="M1710 1295 l0 -55 70 0 70 0 0 -185 0 -185 65 0 65 0 0 185 0 185 70
0 70 0 0 55 0 55 -205 0 -205 0 0 -55z"/>
<path d="M2248 1193 c-36 -87 -82 -195 -102 -240 l-35 -83 68 0 68 0 17 45 18
45 97 0 98 0 17 -45 18 -45 69 0 c38 0 69 2 69 3 0 2 -44 109 -99 238 l-98
234 -69 3 -69 2 -67 -157z"/>
<path d="M602 460 c-12 -5 -27 -21 -32 -36 -15 -37 9 -70 60 -84 21 -6 42 -15
45 -20 9 -15 -41 -23 -63 -11 -29 15 -39 14 -46 -6 -10 -26 21 -43 79 -43 59
0 85 19 85 62 0 30 -14 44 -66 62 -50 17 -46 31 9 31 32 0 42 4 45 17 6 31
-65 48 -116 28z"/>
<path d="M943 455 c-33 -14 -63 -59 -63 -95 0 -29 27 -77 49 -90 25 -13 107
-13 132 0 14 8 19 21 19 55 0 41 -2 45 -25 45 -21 0 -25 -5 -25 -29 0 -32 -22
-43 -58 -30 -23 9 -38 49 -28 74 10 27 53 40 81 25 20 -11 27 -11 40 0 23 19
18 30 -20 46 -42 17 -61 17 -102 -1z"/>
<path d="M1733 460 c-29 -12 -46 -46 -39 -76 5 -17 20 -28 56 -41 28 -10 49
-22 47 -28 -4 -11 -42 -12 -74 -1 -17 5 -23 2 -28 -15 -10 -29 8 -39 76 -39
63 0 89 18 89 62 0 30 -14 44 -66 62 -50 17 -46 31 9 31 32 0 42 4 45 17 6 31
-65 48 -115 28z"/>
<path d="M2397 459 c-27 -11 -42 -42 -35 -75 3 -19 14 -26 72 -49 30 -12 37
-18 28 -27 -9 -9 -21 -9 -49 0 -33 10 -40 10 -51 -5 -18 -26 10 -43 69 -43 61
0 78 7 90 36 15 41 -4 71 -56 86 -58 16 -58 34 -1 31 33 -2 46 1 50 14 4 9 3
20 -1 24 -14 14 -87 19 -116 8z"/>
<path d="M110 360 l0 -100 69 0 c60 0 74 3 100 26 27 22 31 32 31 72 -1 77
-33 102 -134 102 l-66 0 0 -100z"/>
<path d="M360 360 l0 -100 80 0 c73 0 80 2 80 20 0 17 -7 20 -50 20 -43 0 -50
3 -50 20 0 17 7 20 45 20 41 0 45 2 45 25 0 23 -4 25 -45 25 -33 0 -45 4 -45
15 0 11 12 15 50 15 43 0 50 3 50 20 0 18 -7 20 -80 20 l-80 0 0 -100z"/>
<path d="M1130 360 l0 -100 29 0 c29 0 30 2 33 50 l3 51 40 -51 c27 -34 47
-50 62 -50 22 0 23 3 23 100 0 99 0 100 -24 100 -23 0 -25 -4 -28 -51 l-3 -50
-39 50 c-30 41 -44 51 -67 51 l-29 0 0 -100z"/>
<path d="M1910 360 l0 -100 80 0 c73 0 80 2 80 20 0 18 -7 20 -55 20 -48 0
-55 2 -55 20 0 17 7 20 45 20 41 0 45 2 45 25 0 23 -4 25 -45 25 -33 0 -45 4
-45 15 0 11 12 15 50 15 43 0 50 3 50 20 0 18 -7 20 -75 20 l-75 0 0 -100z"/>
<path d="M2120 360 l0 -100 25 0 c23 0 25 3 25 53 l1 52 47 -53 c31 -34 55
-52 70 -52 21 0 22 3 22 100 l0 100 -30 0 c-29 0 -30 -1 -30 -47 l-1 -48 -40
48 c-28 32 -49 47 -65 47 -24 0 -24 -1 -24 -100z"/>
<path d="M2570 360 l0 -100 80 0 c73 0 80 2 80 20 0 17 -7 20 -50 20 -43 0
-50 3 -50 20 0 17 7 20 45 20 41 0 45 2 45 25 0 23 -4 25 -45 25 -33 0 -45 4
-45 15 0 11 12 15 50 15 43 0 50 3 50 20 0 18 -7 20 -80 20 l-80 0 0 -100z"/>
</g>
</svg>
