<svg xmlns="http://www.w3.org/2000/svg" xmlns:xlink="http://www.w3.org/1999/xlink" width="500" zoomAndPan="magnify" viewBox="0 0 375 374.999991" height="500" preserveAspectRatio="xMidYMid meet" version="1.0"><defs><clipPath id="d7bae3c5f1"><path d="M 148.171875 138.273438 L 226.828125 138.273438 L 226.828125 236.429688 L 148.171875 236.429688 Z M 148.171875 138.273438 " clip-rule="nonzero"/></clipPath><clipPath id="e6f2beb4ce"><path d="M 168.402344 157.773438 L 206.597656 157.773438 L 206.597656 236.726562 L 168.402344 236.726562 Z M 168.402344 157.773438 " clip-rule="nonzero"/></clipPath><clipPath id="6b2daf8801"><path d="M 175.160156 211.734375 L 199.910156 211.734375 L 199.910156 236.484375 L 175.160156 236.484375 Z M 175.160156 211.734375 " clip-rule="nonzero"/></clipPath><clipPath id="a46706e530"><path d="M 176.058594 211.734375 L 178.984375 211.734375 C 179.359375 211.734375 179.695312 212.046875 179.695312 212.445312 L 179.695312 215.226562 L 183.1875 218.777344 L 185.632812 218.777344 C 185.988281 218.777344 186.300781 219.070312 186.300781 219.449219 L 186.300781 221.957031 L 189.875 225.613281 L 192.363281 225.613281 C 192.71875 225.613281 193.03125 225.90625 193.03125 226.285156 L 193.03125 228.8125 L 196.585938 232.429688 L 199.09375 232.429688 C 199.449219 232.429688 199.761719 232.722656 199.761719 233.097656 L 199.761719 235.859375 C 199.761719 236.214844 199.46875 236.527344 199.09375 236.527344 L 196.335938 236.527344 C 195.980469 236.527344 195.667969 236.234375 195.667969 235.859375 L 195.667969 233.285156 L 192.132812 229.691406 L 189.605469 229.691406 C 189.25 229.691406 188.933594 229.398438 188.933594 229.023438 L 188.933594 226.429688 L 185.445312 222.875 L 182.875 222.875 C 182.519531 222.875 182.203125 222.582031 182.203125 222.207031 L 182.203125 219.574219 L 178.777344 216.082031 L 176.058594 216.082031 C 175.683594 216.082031 175.347656 215.769531 175.347656 215.371094 L 175.347656 212.445312 C 175.347656 212.070312 175.660156 211.734375 176.058594 211.734375 Z M 193.011719 221.976562 L 196.566406 225.574219 L 199.074219 225.574219 C 199.429688 225.574219 199.742188 225.867188 199.742188 226.242188 L 199.742188 229 C 199.742188 229.355469 199.449219 229.671875 199.074219 229.671875 L 196.3125 229.671875 C 195.957031 229.671875 195.644531 229.378906 195.644531 229 L 195.644531 226.449219 L 192.089844 222.855469 L 189.582031 222.855469 C 189.226562 222.855469 188.914062 222.5625 188.914062 222.1875 L 188.914062 219.425781 C 188.914062 219.070312 189.207031 218.757812 189.582031 218.757812 L 192.34375 218.757812 C 192.699219 218.757812 193.011719 219.050781 193.011719 219.425781 Z M 179.570312 221.976562 L 183.125 225.574219 L 185.632812 225.574219 C 185.988281 225.574219 186.300781 225.867188 186.300781 226.242188 L 186.300781 229 C 186.300781 229.355469 186.007812 229.671875 185.632812 229.671875 L 182.875 229.671875 C 182.519531 229.671875 182.203125 229.378906 182.203125 229 L 182.203125 226.449219 L 178.652344 222.855469 L 176.140625 222.855469 C 175.785156 222.855469 175.472656 222.5625 175.472656 222.1875 L 175.472656 219.425781 C 175.472656 219.070312 175.765625 218.757812 176.140625 218.757812 L 178.902344 218.757812 C 179.257812 218.757812 179.570312 219.050781 179.570312 219.425781 Z M 184.710938 233.765625 L 183.8125 233.765625 C 183.6875 233.765625 183.605469 233.871094 183.605469 233.976562 L 183.605469 234.875 C 183.605469 235 183.710938 235.085938 183.8125 235.085938 L 184.710938 235.085938 C 184.839844 235.085938 184.921875 234.980469 184.921875 234.875 L 184.921875 233.976562 C 184.921875 233.851562 184.816406 233.765625 184.710938 233.765625 Z M 191.964844 232.972656 L 190 232.972656 C 189.75 232.972656 189.519531 233.183594 189.519531 233.453125 L 189.519531 235.417969 C 189.519531 235.667969 189.730469 235.898438 190 235.898438 L 191.964844 235.898438 C 192.21875 235.898438 192.445312 235.691406 192.445312 235.417969 L 192.445312 233.453125 C 192.445312 233.203125 192.238281 232.972656 191.964844 232.972656 Z M 196.710938 212.425781 L 198.675781 212.425781 C 198.925781 212.425781 199.15625 212.632812 199.15625 212.90625 L 199.15625 214.871094 C 199.15625 215.121094 198.949219 215.351562 198.675781 215.351562 L 196.710938 215.351562 C 196.460938 215.351562 196.230469 215.140625 196.230469 214.871094 L 196.230469 212.90625 C 196.230469 212.65625 196.441406 212.425781 196.710938 212.425781 Z M 190.816406 213.21875 L 191.714844 213.21875 C 191.839844 213.21875 191.925781 213.324219 191.925781 213.429688 L 191.925781 214.328125 C 191.925781 214.453125 191.820312 214.535156 191.714844 214.535156 L 190.816406 214.535156 C 190.691406 214.535156 190.609375 214.429688 190.609375 214.328125 L 190.609375 213.429688 C 190.609375 213.300781 190.710938 213.21875 190.816406 213.21875 Z M 183.519531 212.425781 L 185.484375 212.425781 C 185.738281 212.425781 185.96875 212.632812 185.96875 212.90625 L 185.96875 214.871094 C 185.96875 215.121094 185.757812 215.351562 185.484375 215.351562 L 183.519531 215.351562 C 183.269531 215.351562 183.039062 215.140625 183.039062 214.871094 L 183.039062 212.90625 C 183.039062 212.65625 183.25 212.425781 183.519531 212.425781 Z M 196.3125 218.757812 L 199.074219 218.757812 C 199.429688 218.757812 199.742188 219.050781 199.742188 219.425781 L 199.742188 222.1875 C 199.742188 222.542969 199.449219 222.855469 199.074219 222.855469 L 196.3125 222.855469 C 195.957031 222.855469 195.644531 222.5625 195.644531 222.1875 L 195.644531 219.425781 C 195.644531 219.070312 195.9375 218.757812 196.3125 218.757812 Z M 176.476562 232.867188 L 178.566406 232.867188 C 178.839844 232.867188 179.070312 233.097656 179.070312 233.371094 L 179.070312 235.460938 C 179.070312 235.730469 178.839844 235.960938 178.566406 235.960938 L 176.476562 235.960938 C 176.203125 235.960938 175.976562 235.730469 175.976562 235.460938 L 175.976562 233.371094 C 175.976562 233.097656 176.203125 232.867188 176.476562 232.867188 Z M 176.183594 225.636719 L 178.859375 225.636719 C 179.214844 225.636719 179.507812 225.929688 179.507812 226.285156 L 179.507812 228.960938 C 179.507812 229.316406 179.214844 229.605469 178.859375 229.605469 L 176.183594 229.605469 C 175.828125 229.605469 175.535156 229.316406 175.535156 228.960938 L 175.535156 226.285156 C 175.535156 225.929688 175.828125 225.636719 176.183594 225.636719 Z M 176.183594 225.636719 " clip-rule="evenodd"/></clipPath><linearGradient x1="12.207557" gradientTransform="matrix(2.090372, 0, 0, 2.090372, 175.34776, 211.734725)" y1="0.346751" x2="3.249359" gradientUnits="userSpaceOnUse" y2="13.97576" id="9b29100bd2"><stop stop-opacity="1" stop-color="rgb(34.498596%, 34.899902%, 35.699463%)" offset="0"/><stop stop-opacity="1" stop-color="rgb(34.498596%, 34.899902%, 35.699463%)" offset="0.125"/><stop stop-opacity="1" stop-color="rgb(34.490967%, 34.892273%, 35.691833%)" offset="0.140625"/><stop stop-opacity="1" stop-color="rgb(34.249878%, 34.646606%, 35.440063%)" offset="0.144531"/><stop stop-opacity="1" stop-color="rgb(34.014893%, 34.408569%, 35.197449%)" offset="0.148438"/><stop stop-opacity="1" stop-color="rgb(33.779907%, 34.170532%, 34.954834%)" offset="0.152344"/><stop stop-opacity="1" stop-color="rgb(33.544922%, 33.934021%, 34.712219%)" offset="0.15625"/><stop stop-opacity="1" stop-color="rgb(33.309937%, 33.695984%, 34.468079%)" offset="0.160156"/><stop stop-opacity="1" stop-color="rgb(33.074951%, 33.459473%, 34.225464%)" offset="0.164062"/><stop stop-opacity="1" stop-color="rgb(32.839966%, 33.221436%, 33.982849%)" offset="0.167969"/><stop stop-opacity="1" stop-color="rgb(32.60498%, 32.983398%, 33.740234%)" offset="0.171875"/><stop stop-opacity="1" stop-color="rgb(32.369995%, 32.745361%, 33.496094%)" offset="0.175781"/><stop stop-opacity="1" stop-color="rgb(32.136536%, 32.50885%, 33.253479%)" offset="0.179688"/><stop stop-opacity="1" stop-color="rgb(31.90155%, 32.270813%, 33.010864%)" offset="0.183594"/><stop stop-opacity="1" stop-color="rgb(31.666565%, 32.032776%, 32.76825%)" offset="0.1875"/><stop stop-opacity="1" stop-color="rgb(31.43158%, 31.794739%, 32.524109%)" offset="0.191406"/><stop stop-opacity="1" stop-color="rgb(31.196594%, 31.558228%, 32.281494%)" offset="0.195312"/><stop stop-opacity="1" stop-color="rgb(30.961609%, 31.32019%, 32.037354%)" offset="0.199219"/><stop stop-opacity="1" stop-color="rgb(30.726624%, 31.082153%, 31.794739%)" offset="0.203125"/><stop stop-opacity="1" stop-color="rgb(30.491638%, 30.844116%, 31.552124%)" offset="0.207031"/><stop stop-opacity="1" stop-color="rgb(30.256653%, 30.607605%, 31.309509%)" offset="0.210937"/><stop stop-opacity="1" stop-color="rgb(30.021667%, 30.369568%, 31.065369%)" offset="0.214844"/><stop stop-opacity="1" stop-color="rgb(29.786682%, 30.133057%, 30.822754%)" offset="0.21875"/><stop stop-opacity="1" stop-color="rgb(29.551697%, 29.89502%, 30.580139%)" offset="0.222656"/><stop stop-opacity="1" stop-color="rgb(29.316711%, 29.656982%, 30.337524%)" offset="0.226562"/><stop stop-opacity="1" stop-color="rgb(29.081726%, 29.418945%, 30.093384%)" offset="0.230469"/><stop stop-opacity="1" stop-color="rgb(28.848267%, 29.182434%, 29.850769%)" offset="0.234375"/><stop stop-opacity="1" stop-color="rgb(28.613281%, 28.944397%, 29.608154%)" offset="0.238281"/><stop stop-opacity="1" stop-color="rgb(28.378296%, 28.70636%, 29.36554%)" offset="0.242187"/><stop stop-opacity="1" stop-color="rgb(28.143311%, 28.468323%, 29.121399%)" offset="0.246094"/><stop stop-opacity="1" stop-color="rgb(27.908325%, 28.231812%, 28.878784%)" offset="0.25"/><stop stop-opacity="1" stop-color="rgb(27.67334%, 27.993774%, 28.634644%)" offset="0.253906"/><stop stop-opacity="1" stop-color="rgb(27.438354%, 27.755737%, 28.392029%)" offset="0.257812"/><stop stop-opacity="1" stop-color="rgb(27.203369%, 27.5177%, 28.149414%)" offset="0.261719"/><stop stop-opacity="1" stop-color="rgb(26.968384%, 27.281189%, 27.906799%)" offset="0.265625"/><stop stop-opacity="1" stop-color="rgb(26.733398%, 27.043152%, 27.662659%)" offset="0.269531"/><stop stop-opacity="1" stop-color="rgb(26.498413%, 26.806641%, 27.420044%)" offset="0.273437"/><stop stop-opacity="1" stop-color="rgb(26.263428%, 26.568604%, 27.177429%)" offset="0.277344"/><stop stop-opacity="1" stop-color="rgb(26.028442%, 26.330566%, 26.934814%)" offset="0.28125"/><stop stop-opacity="1" stop-color="rgb(25.793457%, 26.092529%, 26.690674%)" offset="0.285156"/><stop stop-opacity="1" stop-color="rgb(25.559998%, 25.856018%, 26.448059%)" offset="0.289062"/><stop stop-opacity="1" stop-color="rgb(25.325012%, 25.617981%, 26.205444%)" offset="0.292969"/><stop stop-opacity="1" stop-color="rgb(25.090027%, 25.379944%, 25.96283%)" offset="0.296875"/><stop stop-opacity="1" stop-color="rgb(24.855042%, 25.141907%, 25.718689%)" offset="0.300781"/><stop stop-opacity="1" stop-color="rgb(24.620056%, 24.905396%, 25.476074%)" offset="0.304688"/><stop stop-opacity="1" stop-color="rgb(24.385071%, 24.667358%, 25.231934%)" offset="0.308594"/><stop stop-opacity="1" stop-color="rgb(24.150085%, 24.429321%, 24.989319%)" offset="0.3125"/><stop stop-opacity="1" stop-color="rgb(23.9151%, 24.191284%, 24.746704%)" offset="0.316406"/><stop stop-opacity="1" stop-color="rgb(23.680115%, 23.954773%, 24.504089%)" offset="0.320312"/><stop stop-opacity="1" stop-color="rgb(23.445129%, 23.716736%, 24.259949%)" offset="0.324219"/><stop stop-opacity="1" stop-color="rgb(23.210144%, 23.480225%, 24.017334%)" offset="0.328125"/><stop stop-opacity="1" stop-color="rgb(22.975159%, 23.242188%, 23.774719%)" offset="0.332031"/><stop stop-opacity="1" stop-color="rgb(22.740173%, 23.00415%, 23.532104%)" offset="0.335937"/><stop stop-opacity="1" stop-color="rgb(22.505188%, 22.766113%, 23.287964%)" offset="0.339844"/><stop stop-opacity="1" stop-color="rgb(22.271729%, 22.529602%, 23.045349%)" offset="0.34375"/><stop stop-opacity="1" stop-color="rgb(22.036743%, 22.291565%, 22.802734%)" offset="0.347656"/><stop stop-opacity="1" stop-color="rgb(21.801758%, 22.053528%, 22.56012%)" offset="0.351562"/><stop stop-opacity="1" stop-color="rgb(21.566772%, 21.815491%, 22.315979%)" offset="0.355469"/><stop stop-opacity="1" stop-color="rgb(21.331787%, 21.578979%, 22.073364%)" offset="0.359375"/><stop stop-opacity="1" stop-color="rgb(21.096802%, 21.340942%, 21.83075%)" offset="0.363281"/><stop stop-opacity="1" stop-color="rgb(20.861816%, 21.104431%, 21.588135%)" offset="0.367187"/><stop stop-opacity="1" stop-color="rgb(20.626831%, 20.866394%, 21.343994%)" offset="0.371094"/><stop stop-opacity="1" stop-color="rgb(20.391846%, 20.628357%, 21.101379%)" offset="0.375"/><stop stop-opacity="1" stop-color="rgb(20.15686%, 20.39032%, 20.857239%)" offset="0.378906"/><stop stop-opacity="1" stop-color="rgb(19.921875%, 20.153809%, 20.614624%)" offset="0.382812"/><stop stop-opacity="1" stop-color="rgb(19.68689%, 19.915771%, 20.372009%)" offset="0.386719"/><stop stop-opacity="1" stop-color="rgb(19.451904%, 19.677734%, 20.129395%)" offset="0.390625"/><stop stop-opacity="1" stop-color="rgb(19.216919%, 19.439697%, 19.885254%)" offset="0.394531"/><stop stop-opacity="1" stop-color="rgb(18.983459%, 19.203186%, 19.642639%)" offset="0.398438"/><stop stop-opacity="1" stop-color="rgb(18.748474%, 18.965149%, 19.400024%)" offset="0.402344"/><stop stop-opacity="1" stop-color="rgb(18.513489%, 18.727112%, 19.15741%)" offset="0.40625"/><stop stop-opacity="1" stop-color="rgb(18.278503%, 18.489075%, 18.913269%)" offset="0.410156"/><stop stop-opacity="1" stop-color="rgb(18.043518%, 18.252563%, 18.670654%)" offset="0.414062"/><stop stop-opacity="1" stop-color="rgb(17.808533%, 18.014526%, 18.42804%)" offset="0.417969"/><stop stop-opacity="1" stop-color="rgb(17.573547%, 17.778015%, 18.185425%)" offset="0.421875"/><stop stop-opacity="1" stop-color="rgb(17.338562%, 17.539978%, 17.941284%)" offset="0.425781"/><stop stop-opacity="1" stop-color="rgb(17.103577%, 17.301941%, 17.698669%)" offset="0.429687"/><stop stop-opacity="1" stop-color="rgb(16.868591%, 17.063904%, 17.454529%)" offset="0.433594"/><stop stop-opacity="1" stop-color="rgb(16.633606%, 16.827393%, 17.211914%)" offset="0.4375"/><stop stop-opacity="1" stop-color="rgb(16.398621%, 16.589355%, 16.969299%)" offset="0.441406"/><stop stop-opacity="1" stop-color="rgb(16.163635%, 16.351318%, 16.726685%)" offset="0.445313"/><stop stop-opacity="1" stop-color="rgb(15.92865%, 16.113281%, 16.482544%)" offset="0.449219"/><stop stop-opacity="1" stop-color="rgb(15.69519%, 15.87677%, 16.239929%)" offset="0.453125"/><stop stop-opacity="1" stop-color="rgb(15.460205%, 15.638733%, 15.997314%)" offset="0.457031"/><stop stop-opacity="1" stop-color="rgb(15.22522%, 15.400696%, 15.7547%)" offset="0.460938"/><stop stop-opacity="1" stop-color="rgb(14.990234%, 15.162659%, 15.510559%)" offset="0.464844"/><stop stop-opacity="1" stop-color="rgb(14.755249%, 14.926147%, 15.267944%)" offset="0.46875"/><stop stop-opacity="1" stop-color="rgb(14.520264%, 14.68811%, 15.02533%)" offset="0.472656"/><stop stop-opacity="1" stop-color="rgb(14.285278%, 14.451599%, 14.782715%)" offset="0.476563"/><stop stop-opacity="1" stop-color="rgb(14.050293%, 14.213562%, 14.538574%)" offset="0.480469"/><stop stop-opacity="1" stop-color="rgb(13.815308%, 13.975525%, 14.295959%)" offset="0.484375"/><stop stop-opacity="1" stop-color="rgb(13.580322%, 13.737488%, 14.053345%)" offset="0.488281"/><stop stop-opacity="1" stop-color="rgb(13.345337%, 13.500977%, 13.81073%)" offset="0.492188"/><stop stop-opacity="1" stop-color="rgb(13.110352%, 13.262939%, 13.566589%)" offset="0.496094"/><stop stop-opacity="1" stop-color="rgb(12.875366%, 13.024902%, 13.323975%)" offset="0.5"/><stop stop-opacity="1" stop-color="rgb(12.640381%, 12.786865%, 13.079834%)" offset="0.503906"/><stop stop-opacity="1" stop-color="rgb(12.406921%, 12.550354%, 12.837219%)" offset="0.507812"/><stop stop-opacity="1" stop-color="rgb(12.171936%, 12.312317%, 12.594604%)" offset="0.511719"/><stop stop-opacity="1" stop-color="rgb(11.936951%, 12.07428%, 12.35199%)" offset="0.515625"/><stop stop-opacity="1" stop-color="rgb(11.701965%, 11.836243%, 12.107849%)" offset="0.519531"/><stop stop-opacity="1" stop-color="rgb(11.46698%, 11.599731%, 11.865234%)" offset="0.523438"/><stop stop-opacity="1" stop-color="rgb(11.231995%, 11.361694%, 11.62262%)" offset="0.527344"/><stop stop-opacity="1" stop-color="rgb(10.997009%, 11.125183%, 11.380005%)" offset="0.53125"/><stop stop-opacity="1" stop-color="rgb(10.762024%, 10.887146%, 11.135864%)" offset="0.535156"/><stop stop-opacity="1" stop-color="rgb(10.527039%, 10.649109%, 10.89325%)" offset="0.539063"/><stop stop-opacity="1" stop-color="rgb(10.292053%, 10.411072%, 10.650635%)" offset="0.542969"/><stop stop-opacity="1" stop-color="rgb(10.057068%, 10.174561%, 10.40802%)" offset="0.546875"/><stop stop-opacity="1" stop-color="rgb(9.822083%, 9.936523%, 10.163879%)" offset="0.550781"/><stop stop-opacity="1" stop-color="rgb(9.587097%, 9.698486%, 9.921265%)" offset="0.554688"/><stop stop-opacity="1" stop-color="rgb(9.352112%, 9.460449%, 9.677124%)" offset="0.558594"/><stop stop-opacity="1" stop-color="rgb(9.118652%, 9.223938%, 9.434509%)" offset="0.5625"/><stop stop-opacity="1" stop-color="rgb(8.883667%, 8.985901%, 9.191895%)" offset="0.566406"/><stop stop-opacity="1" stop-color="rgb(8.648682%, 8.747864%, 8.94928%)" offset="0.570312"/><stop stop-opacity="1" stop-color="rgb(8.413696%, 8.509827%, 8.705139%)" offset="0.574219"/><stop stop-opacity="1" stop-color="rgb(8.178711%, 8.273315%, 8.462524%)" offset="0.578125"/><stop stop-opacity="1" stop-color="rgb(7.943726%, 8.035278%, 8.21991%)" offset="0.582031"/><stop stop-opacity="1" stop-color="rgb(7.70874%, 7.798767%, 7.977295%)" offset="0.585938"/><stop stop-opacity="1" stop-color="rgb(7.473755%, 7.56073%, 7.733154%)" offset="0.589844"/><stop stop-opacity="1" stop-color="rgb(7.23877%, 7.322693%, 7.49054%)" offset="0.59375"/><stop stop-opacity="1" stop-color="rgb(7.003784%, 7.084656%, 7.247925%)" offset="0.597656"/><stop stop-opacity="1" stop-color="rgb(6.768799%, 6.848145%, 7.00531%)" offset="0.601562"/><stop stop-opacity="1" stop-color="rgb(6.533813%, 6.610107%, 6.761169%)" offset="0.605469"/><stop stop-opacity="1" stop-color="rgb(6.298828%, 6.37207%, 6.518555%)" offset="0.609375"/><stop stop-opacity="1" stop-color="rgb(6.063843%, 6.134033%, 6.27594%)" offset="0.613281"/><stop stop-opacity="1" stop-color="rgb(5.830383%, 5.897522%, 6.033325%)" offset="0.617188"/><stop stop-opacity="1" stop-color="rgb(5.595398%, 5.659485%, 5.789185%)" offset="0.621094"/><stop stop-opacity="1" stop-color="rgb(5.360413%, 5.421448%, 5.54657%)" offset="0.625"/><stop stop-opacity="1" stop-color="rgb(5.125427%, 5.183411%, 5.302429%)" offset="0.628906"/><stop stop-opacity="1" stop-color="rgb(4.890442%, 4.946899%, 5.059814%)" offset="0.632813"/><stop stop-opacity="1" stop-color="rgb(4.655457%, 4.708862%, 4.8172%)" offset="0.636719"/><stop stop-opacity="1" stop-color="rgb(4.420471%, 4.472351%, 4.574585%)" offset="0.640625"/><stop stop-opacity="1" stop-color="rgb(4.185486%, 4.234314%, 4.330444%)" offset="0.644531"/><stop stop-opacity="1" stop-color="rgb(3.9505%, 3.996277%, 4.08783%)" offset="0.648438"/><stop stop-opacity="1" stop-color="rgb(3.715515%, 3.75824%, 3.845215%)" offset="0.652344"/><stop stop-opacity="1" stop-color="rgb(3.48053%, 3.521729%, 3.6026%)" offset="0.65625"/><stop stop-opacity="1" stop-color="rgb(3.245544%, 3.283691%, 3.358459%)" offset="0.660156"/><stop stop-opacity="1" stop-color="rgb(3.010559%, 3.045654%, 3.115845%)" offset="0.664062"/><stop stop-opacity="1" stop-color="rgb(2.775574%, 2.807617%, 2.87323%)" offset="0.667969"/><stop stop-opacity="1" stop-color="rgb(2.542114%, 2.571106%, 2.630615%)" offset="0.671875"/><stop stop-opacity="1" stop-color="rgb(2.307129%, 2.333069%, 2.386475%)" offset="0.675781"/><stop stop-opacity="1" stop-color="rgb(2.072144%, 2.096558%, 2.14386%)" offset="0.679688"/><stop stop-opacity="1" stop-color="rgb(1.837158%, 1.858521%, 1.899719%)" offset="0.683594"/><stop stop-opacity="1" stop-color="rgb(1.602173%, 1.620483%, 1.657104%)" offset="0.6875"/><stop stop-opacity="1" stop-color="rgb(1.367188%, 1.382446%, 1.41449%)" offset="0.691406"/><stop stop-opacity="1" stop-color="rgb(1.132202%, 1.145935%, 1.171875%)" offset="0.695312"/><stop stop-opacity="1" stop-color="rgb(0.897217%, 0.907898%, 0.927734%)" offset="0.699219"/><stop stop-opacity="1" stop-color="rgb(0.662231%, 0.669861%, 0.68512%)" offset="0.703125"/><stop stop-opacity="1" stop-color="rgb(0.427246%, 0.431824%, 0.442505%)" offset="0.707031"/><stop stop-opacity="1" stop-color="rgb(0.192261%, 0.195312%, 0.19989%)" offset="0.710938"/><stop stop-opacity="1" stop-color="rgb(0.0961304%, 0.0976562%, 0.0991821%)" offset="0.71875"/><stop stop-opacity="1" stop-color="rgb(0%, 0%, 0%)" offset="0.75"/><stop stop-opacity="1" stop-color="rgb(0%, 0%, 0%)" offset="1"/></linearGradient></defs><g clip-path="url(#d7bae3c5f1)"><path fill="#000000" d="M 148.171875 138.273438 L 227.273438 138.273438 L 227.273438 236.710938 L 148.171875 236.710938 Z M 148.171875 138.273438 " fill-opacity="1" fill-rule="nonzero"/></g><g clip-path="url(#e6f2beb4ce)"><path fill="#f5f5f5" d="M 168.402344 157.773438 L 207.074219 157.773438 L 207.074219 236.875 L 168.402344 236.875 Z M 168.402344 157.773438 " fill-opacity="1" fill-rule="nonzero"/></g><g clip-path="url(#6b2daf8801)"><g clip-path="url(#a46706e530)"><path fill="url(#9b29100bd2)" d="M 175.347656 211.734375 L 175.347656 236.484375 L 199.761719 236.484375 L 199.761719 211.734375 Z M 175.347656 211.734375 " fill-rule="nonzero"/></g></g></svg>