<svg xmlns="http://www.w3.org/2000/svg" xmlns:xlink="http://www.w3.org/1999/xlink" width="500" zoomAndPan="magnify" viewBox="0 0 375 374.999991" height="500" preserveAspectRatio="xMidYMid meet" version="1.0"><defs><clipPath id="60ec497214"><path d="M 148.171875 138.273438 L 226.828125 138.273438 L 226.828125 236.429688 L 148.171875 236.429688 Z M 148.171875 138.273438 " clip-rule="nonzero"/></clipPath><clipPath id="c46a184f98"><path d="M 168.402344 157.773438 L 206.597656 157.773438 L 206.597656 236.726562 L 168.402344 236.726562 Z M 168.402344 157.773438 " clip-rule="nonzero"/></clipPath><clipPath id="e236a1e976"><path d="M 175.160156 211.734375 L 199.910156 211.734375 L 199.910156 236.484375 L 175.160156 236.484375 Z M 175.160156 211.734375 " clip-rule="nonzero"/></clipPath><clipPath id="11b437493e"><path d="M 176.058594 211.734375 L 178.984375 211.734375 C 179.359375 211.734375 179.695312 212.046875 179.695312 212.445312 L 179.695312 215.226562 L 183.1875 218.777344 L 185.632812 218.777344 C 185.988281 218.777344 186.300781 219.070312 186.300781 219.449219 L 186.300781 221.957031 L 189.875 225.613281 L 192.363281 225.613281 C 192.71875 225.613281 193.03125 225.90625 193.03125 226.285156 L 193.03125 228.8125 L 196.585938 232.429688 L 199.09375 232.429688 C 199.449219 232.429688 199.761719 232.722656 199.761719 233.097656 L 199.761719 235.859375 C 199.761719 236.214844 199.46875 236.527344 199.09375 236.527344 L 196.335938 236.527344 C 195.980469 236.527344 195.667969 236.234375 195.667969 235.859375 L 195.667969 233.285156 L 192.132812 229.691406 L 189.605469 229.691406 C 189.25 229.691406 188.933594 229.398438 188.933594 229.023438 L 188.933594 226.429688 L 185.445312 222.875 L 182.875 222.875 C 182.519531 222.875 182.203125 222.582031 182.203125 222.207031 L 182.203125 219.574219 L 178.777344 216.082031 L 176.058594 216.082031 C 175.683594 216.082031 175.347656 215.769531 175.347656 215.371094 L 175.347656 212.445312 C 175.347656 212.070312 175.660156 211.734375 176.058594 211.734375 Z M 193.011719 221.976562 L 196.566406 225.574219 L 199.074219 225.574219 C 199.429688 225.574219 199.742188 225.867188 199.742188 226.242188 L 199.742188 229 C 199.742188 229.355469 199.449219 229.671875 199.074219 229.671875 L 196.3125 229.671875 C 195.957031 229.671875 195.644531 229.378906 195.644531 229 L 195.644531 226.449219 L 192.089844 222.855469 L 189.582031 222.855469 C 189.226562 222.855469 188.914062 222.5625 188.914062 222.1875 L 188.914062 219.425781 C 188.914062 219.070312 189.207031 218.757812 189.582031 218.757812 L 192.34375 218.757812 C 192.699219 218.757812 193.011719 219.050781 193.011719 219.425781 Z M 179.570312 221.976562 L 183.125 225.574219 L 185.632812 225.574219 C 185.988281 225.574219 186.300781 225.867188 186.300781 226.242188 L 186.300781 229 C 186.300781 229.355469 186.007812 229.671875 185.632812 229.671875 L 182.875 229.671875 C 182.519531 229.671875 182.203125 229.378906 182.203125 229 L 182.203125 226.449219 L 178.652344 222.855469 L 176.140625 222.855469 C 175.785156 222.855469 175.472656 222.5625 175.472656 222.1875 L 175.472656 219.425781 C 175.472656 219.070312 175.765625 218.757812 176.140625 218.757812 L 178.902344 218.757812 C 179.257812 218.757812 179.570312 219.050781 179.570312 219.425781 Z M 184.710938 233.765625 L 183.8125 233.765625 C 183.6875 233.765625 183.605469 233.871094 183.605469 233.976562 L 183.605469 234.875 C 183.605469 235 183.710938 235.085938 183.8125 235.085938 L 184.710938 235.085938 C 184.839844 235.085938 184.921875 234.980469 184.921875 234.875 L 184.921875 233.976562 C 184.921875 233.851562 184.816406 233.765625 184.710938 233.765625 Z M 191.964844 232.972656 L 190 232.972656 C 189.75 232.972656 189.519531 233.183594 189.519531 233.453125 L 189.519531 235.417969 C 189.519531 235.667969 189.730469 235.898438 190 235.898438 L 191.964844 235.898438 C 192.21875 235.898438 192.445312 235.691406 192.445312 235.417969 L 192.445312 233.453125 C 192.445312 233.203125 192.238281 232.972656 191.964844 232.972656 Z M 196.710938 212.425781 L 198.675781 212.425781 C 198.925781 212.425781 199.15625 212.632812 199.15625 212.90625 L 199.15625 214.871094 C 199.15625 215.121094 198.949219 215.351562 198.675781 215.351562 L 196.710938 215.351562 C 196.460938 215.351562 196.230469 215.140625 196.230469 214.871094 L 196.230469 212.90625 C 196.230469 212.65625 196.441406 212.425781 196.710938 212.425781 Z M 190.816406 213.21875 L 191.714844 213.21875 C 191.839844 213.21875 191.925781 213.324219 191.925781 213.429688 L 191.925781 214.328125 C 191.925781 214.453125 191.820312 214.535156 191.714844 214.535156 L 190.816406 214.535156 C 190.691406 214.535156 190.609375 214.429688 190.609375 214.328125 L 190.609375 213.429688 C 190.609375 213.300781 190.710938 213.21875 190.816406 213.21875 Z M 183.519531 212.425781 L 185.484375 212.425781 C 185.738281 212.425781 185.96875 212.632812 185.96875 212.90625 L 185.96875 214.871094 C 185.96875 215.121094 185.757812 215.351562 185.484375 215.351562 L 183.519531 215.351562 C 183.269531 215.351562 183.039062 215.140625 183.039062 214.871094 L 183.039062 212.90625 C 183.039062 212.65625 183.25 212.425781 183.519531 212.425781 Z M 196.3125 218.757812 L 199.074219 218.757812 C 199.429688 218.757812 199.742188 219.050781 199.742188 219.425781 L 199.742188 222.1875 C 199.742188 222.542969 199.449219 222.855469 199.074219 222.855469 L 196.3125 222.855469 C 195.957031 222.855469 195.644531 222.5625 195.644531 222.1875 L 195.644531 219.425781 C 195.644531 219.070312 195.9375 218.757812 196.3125 218.757812 Z M 176.476562 232.867188 L 178.566406 232.867188 C 178.839844 232.867188 179.070312 233.097656 179.070312 233.371094 L 179.070312 235.460938 C 179.070312 235.730469 178.839844 235.960938 178.566406 235.960938 L 176.476562 235.960938 C 176.203125 235.960938 175.976562 235.730469 175.976562 235.460938 L 175.976562 233.371094 C 175.976562 233.097656 176.203125 232.867188 176.476562 232.867188 Z M 176.183594 225.636719 L 178.859375 225.636719 C 179.214844 225.636719 179.507812 225.929688 179.507812 226.285156 L 179.507812 228.960938 C 179.507812 229.316406 179.214844 229.605469 178.859375 229.605469 L 176.183594 229.605469 C 175.828125 229.605469 175.535156 229.316406 175.535156 228.960938 L 175.535156 226.285156 C 175.535156 225.929688 175.828125 225.636719 176.183594 225.636719 Z M 176.183594 225.636719 " clip-rule="evenodd"/></clipPath></defs><g clip-path="url(#60ec497214)"><path fill="#58595b" d="M 148.171875 138.273438 L 227.273438 138.273438 L 227.273438 236.710938 L 148.171875 236.710938 Z M 148.171875 138.273438 " fill-opacity="1" fill-rule="nonzero"/></g><g clip-path="url(#c46a184f98)"><path fill="#f5f5f5" d="M 168.402344 157.773438 L 207.074219 157.773438 L 207.074219 236.875 L 168.402344 236.875 Z M 168.402344 157.773438 " fill-opacity="1" fill-rule="nonzero"/></g><g clip-path="url(#e236a1e976)"><g clip-path="url(#11b437493e)"><path fill="#58595b" d="M 175.347656 211.734375 L 175.347656 236.484375 L 199.761719 236.484375 L 199.761719 211.734375 Z M 175.347656 211.734375 " fill-opacity="1" fill-rule="nonzero"/></g></g></svg>