<svg xmlns="http://www.w3.org/2000/svg" xmlns:xlink="http://www.w3.org/1999/xlink" width="500" zoomAndPan="magnify" viewBox="0 0 375 374.999991" height="500" preserveAspectRatio="xMidYMid meet" version="1.0"><defs><g/><clipPath id="64b85cf7ec"><path d="M 148.171875 103.15625 L 226.828125 103.15625 L 226.828125 201.3125 L 148.171875 201.3125 Z M 148.171875 103.15625 " clip-rule="nonzero"/></clipPath><clipPath id="75be2c79bc"><path d="M 168.402344 122.65625 L 206.597656 122.65625 L 206.597656 201.609375 L 168.402344 201.609375 Z M 168.402344 122.65625 " clip-rule="nonzero"/></clipPath><clipPath id="438a98aa7e"><path d="M 175.160156 176.617188 L 199.910156 176.617188 L 199.910156 201.367188 L 175.160156 201.367188 Z M 175.160156 176.617188 " clip-rule="nonzero"/></clipPath><clipPath id="51d8a91fdd"><path d="M 176.058594 176.617188 L 178.984375 176.617188 C 179.359375 176.617188 179.695312 176.933594 179.695312 177.328125 L 179.695312 180.109375 L 183.1875 183.664062 L 185.632812 183.664062 C 185.988281 183.664062 186.300781 183.957031 186.300781 184.332031 L 186.300781 186.839844 L 189.875 190.5 L 192.363281 190.5 C 192.71875 190.5 193.03125 190.792969 193.03125 191.167969 L 193.03125 193.695312 L 196.585938 197.3125 L 199.09375 197.3125 C 199.449219 197.3125 199.761719 197.605469 199.761719 197.980469 L 199.761719 200.742188 C 199.761719 201.097656 199.46875 201.410156 199.09375 201.410156 L 196.335938 201.410156 C 195.980469 201.410156 195.667969 201.117188 195.667969 200.742188 L 195.667969 198.171875 L 192.132812 194.574219 L 189.605469 194.574219 C 189.25 194.574219 188.933594 194.28125 188.933594 193.90625 L 188.933594 191.3125 L 185.445312 187.761719 L 182.875 187.761719 C 182.519531 187.761719 182.203125 187.46875 182.203125 187.089844 L 182.203125 184.457031 L 178.777344 180.964844 L 176.058594 180.964844 C 175.683594 180.964844 175.347656 180.652344 175.347656 180.253906 L 175.347656 177.328125 C 175.347656 176.953125 175.660156 176.617188 176.058594 176.617188 Z M 193.011719 186.863281 L 196.566406 190.457031 L 199.074219 190.457031 C 199.429688 190.457031 199.742188 190.75 199.742188 191.125 L 199.742188 193.886719 C 199.742188 194.242188 199.449219 194.554688 199.074219 194.554688 L 196.3125 194.554688 C 195.957031 194.554688 195.644531 194.261719 195.644531 193.886719 L 195.644531 191.335938 L 192.089844 187.738281 L 189.582031 187.738281 C 189.226562 187.738281 188.914062 187.445312 188.914062 187.070312 L 188.914062 184.3125 C 188.914062 183.957031 189.207031 183.640625 189.582031 183.640625 L 192.34375 183.640625 C 192.699219 183.640625 193.011719 183.933594 193.011719 184.3125 Z M 179.570312 186.863281 L 183.125 190.457031 L 185.632812 190.457031 C 185.988281 190.457031 186.300781 190.75 186.300781 191.125 L 186.300781 193.886719 C 186.300781 194.242188 186.007812 194.554688 185.632812 194.554688 L 182.875 194.554688 C 182.519531 194.554688 182.203125 194.261719 182.203125 193.886719 L 182.203125 191.335938 L 178.652344 187.738281 L 176.140625 187.738281 C 175.785156 187.738281 175.472656 187.445312 175.472656 187.070312 L 175.472656 184.3125 C 175.472656 183.957031 175.765625 183.640625 176.140625 183.640625 L 178.902344 183.640625 C 179.257812 183.640625 179.570312 183.933594 179.570312 184.3125 Z M 184.710938 198.652344 L 183.8125 198.652344 C 183.6875 198.652344 183.605469 198.753906 183.605469 198.859375 L 183.605469 199.757812 C 183.605469 199.882812 183.710938 199.96875 183.8125 199.96875 L 184.710938 199.96875 C 184.839844 199.96875 184.921875 199.863281 184.921875 199.757812 L 184.921875 198.859375 C 184.921875 198.734375 184.816406 198.652344 184.710938 198.652344 Z M 191.964844 197.855469 L 190 197.855469 C 189.75 197.855469 189.519531 198.066406 189.519531 198.335938 L 189.519531 200.300781 C 189.519531 200.554688 189.730469 200.785156 190 200.785156 L 191.964844 200.785156 C 192.21875 200.785156 192.445312 200.574219 192.445312 200.300781 L 192.445312 198.335938 C 192.445312 198.085938 192.238281 197.855469 191.964844 197.855469 Z M 196.710938 177.308594 L 198.675781 177.308594 C 198.925781 177.308594 199.15625 177.515625 199.15625 177.789062 L 199.15625 179.753906 C 199.15625 180.003906 198.949219 180.234375 198.675781 180.234375 L 196.710938 180.234375 C 196.460938 180.234375 196.230469 180.027344 196.230469 179.753906 L 196.230469 177.789062 C 196.230469 177.539062 196.441406 177.308594 196.710938 177.308594 Z M 190.816406 178.101562 L 191.714844 178.101562 C 191.839844 178.101562 191.925781 178.207031 191.925781 178.3125 L 191.925781 179.210938 C 191.925781 179.335938 191.820312 179.417969 191.714844 179.417969 L 190.816406 179.417969 C 190.691406 179.417969 190.609375 179.316406 190.609375 179.210938 L 190.609375 178.3125 C 190.609375 178.1875 190.710938 178.101562 190.816406 178.101562 Z M 183.519531 177.308594 L 185.484375 177.308594 C 185.738281 177.308594 185.96875 177.515625 185.96875 177.789062 L 185.96875 179.753906 C 185.96875 180.003906 185.757812 180.234375 185.484375 180.234375 L 183.519531 180.234375 C 183.269531 180.234375 183.039062 180.027344 183.039062 179.753906 L 183.039062 177.789062 C 183.039062 177.539062 183.25 177.308594 183.519531 177.308594 Z M 196.3125 183.640625 L 199.074219 183.640625 C 199.429688 183.640625 199.742188 183.933594 199.742188 184.3125 L 199.742188 187.070312 C 199.742188 187.425781 199.449219 187.738281 199.074219 187.738281 L 196.3125 187.738281 C 195.957031 187.738281 195.644531 187.445312 195.644531 187.070312 L 195.644531 184.3125 C 195.644531 183.957031 195.9375 183.640625 196.3125 183.640625 Z M 176.476562 197.753906 L 178.566406 197.753906 C 178.839844 197.753906 179.070312 197.980469 179.070312 198.253906 L 179.070312 200.34375 C 179.070312 200.617188 178.839844 200.847656 178.566406 200.847656 L 176.476562 200.847656 C 176.203125 200.847656 175.976562 200.617188 175.976562 200.34375 L 175.976562 198.253906 C 175.976562 197.980469 176.203125 197.753906 176.476562 197.753906 Z M 176.183594 190.519531 L 178.859375 190.519531 C 179.214844 190.519531 179.507812 190.8125 179.507812 191.167969 L 179.507812 193.84375 C 179.507812 194.199219 179.214844 194.492188 178.859375 194.492188 L 176.183594 194.492188 C 175.828125 194.492188 175.535156 194.199219 175.535156 193.84375 L 175.535156 191.167969 C 175.535156 190.8125 175.828125 190.519531 176.183594 190.519531 Z M 176.183594 190.519531 " clip-rule="evenodd"/></clipPath></defs><g fill="#58595b" fill-opacity="1"><g transform="translate(147.357209, 252.136292)"><g><path d="M 0.671875 -5.71875 L 3.28125 -5.71875 C 3.894531 -5.71875 4.441406 -5.597656 4.921875 -5.359375 C 5.398438 -5.128906 5.769531 -4.796875 6.03125 -4.359375 C 6.300781 -3.929688 6.4375 -3.429688 6.4375 -2.859375 C 6.4375 -2.285156 6.300781 -1.785156 6.03125 -1.359375 C 5.769531 -0.929688 5.398438 -0.597656 4.921875 -0.359375 C 4.441406 -0.117188 3.894531 0 3.28125 0 L 0.671875 0 Z M 3.21875 -1.09375 C 3.78125 -1.09375 4.234375 -1.25 4.578125 -1.5625 C 4.921875 -1.882812 5.09375 -2.316406 5.09375 -2.859375 C 5.09375 -3.398438 4.921875 -3.832031 4.578125 -4.15625 C 4.234375 -4.476562 3.78125 -4.640625 3.21875 -4.640625 L 2 -4.640625 L 2 -1.09375 Z M 3.21875 -1.09375 "/></g></g></g><g fill="#58595b" fill-opacity="1"><g transform="translate(154.837088, 252.136292)"><g><path d="M 5.109375 -1.0625 L 5.109375 0 L 0.671875 0 L 0.671875 -5.71875 L 5 -5.71875 L 5 -4.65625 L 2 -4.65625 L 2 -3.421875 L 4.65625 -3.421875 L 4.65625 -2.390625 L 2 -2.390625 L 2 -1.0625 Z M 5.109375 -1.0625 "/></g></g></g><g fill="#58595b" fill-opacity="1"><g transform="translate(161.051274, 252.136292)"><g><path d="M 2.5625 0.09375 C 2.101562 0.09375 1.660156 0.0351562 1.234375 -0.078125 C 0.816406 -0.203125 0.484375 -0.363281 0.234375 -0.5625 L 0.671875 -1.5625 C 0.921875 -1.382812 1.210938 -1.238281 1.546875 -1.125 C 1.890625 -1.019531 2.226562 -0.96875 2.5625 -0.96875 C 2.9375 -0.96875 3.210938 -1.019531 3.390625 -1.125 C 3.578125 -1.238281 3.671875 -1.390625 3.671875 -1.578125 C 3.671875 -1.710938 3.613281 -1.820312 3.5 -1.90625 C 3.394531 -2 3.257812 -2.070312 3.09375 -2.125 C 2.9375 -2.1875 2.710938 -2.25 2.421875 -2.3125 C 1.984375 -2.414062 1.625 -2.519531 1.34375 -2.625 C 1.070312 -2.726562 0.835938 -2.894531 0.640625 -3.125 C 0.441406 -3.351562 0.34375 -3.65625 0.34375 -4.03125 C 0.34375 -4.363281 0.429688 -4.664062 0.609375 -4.9375 C 0.785156 -5.207031 1.054688 -5.421875 1.421875 -5.578125 C 1.785156 -5.734375 2.226562 -5.8125 2.75 -5.8125 C 3.113281 -5.8125 3.46875 -5.769531 3.8125 -5.6875 C 4.164062 -5.601562 4.472656 -5.476562 4.734375 -5.3125 L 4.328125 -4.3125 C 3.796875 -4.601562 3.269531 -4.75 2.75 -4.75 C 2.375 -4.75 2.097656 -4.6875 1.921875 -4.5625 C 1.742188 -4.445312 1.65625 -4.296875 1.65625 -4.109375 C 1.65625 -3.910156 1.753906 -3.757812 1.953125 -3.65625 C 2.160156 -3.5625 2.476562 -3.472656 2.90625 -3.390625 C 3.34375 -3.285156 3.695312 -3.179688 3.96875 -3.078125 C 4.25 -2.972656 4.488281 -2.804688 4.6875 -2.578125 C 4.882812 -2.359375 4.984375 -2.054688 4.984375 -1.671875 C 4.984375 -1.347656 4.890625 -1.050781 4.703125 -0.78125 C 4.523438 -0.507812 4.253906 -0.296875 3.890625 -0.140625 C 3.523438 0.015625 3.082031 0.09375 2.5625 0.09375 Z M 2.5625 0.09375 "/></g></g></g><g fill="#58595b" fill-opacity="1"><g transform="translate(166.995983, 252.136292)"><g><path d="M 0.671875 -5.71875 L 2 -5.71875 L 2 0 L 0.671875 0 Z M 0.671875 -5.71875 "/></g></g></g><g fill="#58595b" fill-opacity="1"><g transform="translate(170.409295, 252.136292)"><g><path d="M 4.546875 -2.953125 L 5.75 -2.953125 L 5.75 -0.625 C 5.4375 -0.394531 5.078125 -0.21875 4.671875 -0.09375 C 4.265625 0.03125 3.851562 0.09375 3.4375 0.09375 C 2.84375 0.09375 2.304688 -0.03125 1.828125 -0.28125 C 1.359375 -0.53125 0.988281 -0.878906 0.71875 -1.328125 C 0.445312 -1.785156 0.3125 -2.296875 0.3125 -2.859375 C 0.3125 -3.421875 0.445312 -3.925781 0.71875 -4.375 C 0.988281 -4.832031 1.363281 -5.1875 1.84375 -5.4375 C 2.320312 -5.6875 2.863281 -5.8125 3.46875 -5.8125 C 3.96875 -5.8125 4.421875 -5.726562 4.828125 -5.5625 C 5.234375 -5.394531 5.578125 -5.148438 5.859375 -4.828125 L 5.015625 -4.046875 C 4.597656 -4.472656 4.101562 -4.6875 3.53125 -4.6875 C 3.164062 -4.6875 2.84375 -4.609375 2.5625 -4.453125 C 2.28125 -4.304688 2.054688 -4.09375 1.890625 -3.8125 C 1.734375 -3.539062 1.65625 -3.222656 1.65625 -2.859375 C 1.65625 -2.503906 1.734375 -2.1875 1.890625 -1.90625 C 2.054688 -1.632812 2.273438 -1.421875 2.546875 -1.265625 C 2.828125 -1.109375 3.148438 -1.03125 3.515625 -1.03125 C 3.890625 -1.03125 4.234375 -1.113281 4.546875 -1.28125 Z M 4.546875 -2.953125 "/></g></g></g><g fill="#58595b" fill-opacity="1"><g transform="translate(177.440056, 252.136292)"><g><path d="M 5.921875 -5.71875 L 5.921875 0 L 4.84375 0 L 1.984375 -3.46875 L 1.984375 0 L 0.671875 0 L 0.671875 -5.71875 L 1.765625 -5.71875 L 4.609375 -2.25 L 4.609375 -5.71875 Z M 5.921875 -5.71875 "/></g></g></g><g fill="#58595b" fill-opacity="1"><g transform="translate(184.772962, 252.136292)"><g/></g></g><g fill="#58595b" fill-opacity="1"><g transform="translate(187.818809, 252.136292)"><g><path d="M 0.671875 -6.0625 L 1.84375 -6.0625 L 1.84375 1.578125 L 0.671875 1.578125 Z M 0.671875 -6.0625 "/></g></g></g><g fill="#58595b" fill-opacity="1"><g transform="translate(191.076965, 252.136292)"><g/></g></g><g fill="#58595b" fill-opacity="1"><g transform="translate(194.122813, 252.136292)"><g><path d="M 2.5625 0.09375 C 2.101562 0.09375 1.660156 0.0351562 1.234375 -0.078125 C 0.816406 -0.203125 0.484375 -0.363281 0.234375 -0.5625 L 0.671875 -1.5625 C 0.921875 -1.382812 1.210938 -1.238281 1.546875 -1.125 C 1.890625 -1.019531 2.226562 -0.96875 2.5625 -0.96875 C 2.9375 -0.96875 3.210938 -1.019531 3.390625 -1.125 C 3.578125 -1.238281 3.671875 -1.390625 3.671875 -1.578125 C 3.671875 -1.710938 3.613281 -1.820312 3.5 -1.90625 C 3.394531 -2 3.257812 -2.070312 3.09375 -2.125 C 2.9375 -2.1875 2.710938 -2.25 2.421875 -2.3125 C 1.984375 -2.414062 1.625 -2.519531 1.34375 -2.625 C 1.070312 -2.726562 0.835938 -2.894531 0.640625 -3.125 C 0.441406 -3.351562 0.34375 -3.65625 0.34375 -4.03125 C 0.34375 -4.363281 0.429688 -4.664062 0.609375 -4.9375 C 0.785156 -5.207031 1.054688 -5.421875 1.421875 -5.578125 C 1.785156 -5.734375 2.226562 -5.8125 2.75 -5.8125 C 3.113281 -5.8125 3.46875 -5.769531 3.8125 -5.6875 C 4.164062 -5.601562 4.472656 -5.476562 4.734375 -5.3125 L 4.328125 -4.3125 C 3.796875 -4.601562 3.269531 -4.75 2.75 -4.75 C 2.375 -4.75 2.097656 -4.6875 1.921875 -4.5625 C 1.742188 -4.445312 1.65625 -4.296875 1.65625 -4.109375 C 1.65625 -3.910156 1.753906 -3.757812 1.953125 -3.65625 C 2.160156 -3.5625 2.476562 -3.472656 2.90625 -3.390625 C 3.34375 -3.285156 3.695312 -3.179688 3.96875 -3.078125 C 4.25 -2.972656 4.488281 -2.804688 4.6875 -2.578125 C 4.882812 -2.359375 4.984375 -2.054688 4.984375 -1.671875 C 4.984375 -1.347656 4.890625 -1.050781 4.703125 -0.78125 C 4.523438 -0.507812 4.253906 -0.296875 3.890625 -0.140625 C 3.523438 0.015625 3.082031 0.09375 2.5625 0.09375 Z M 2.5625 0.09375 "/></g></g></g><g fill="#58595b" fill-opacity="1"><g transform="translate(200.067522, 252.136292)"><g><path d="M 5.109375 -1.0625 L 5.109375 0 L 0.671875 0 L 0.671875 -5.71875 L 5 -5.71875 L 5 -4.65625 L 2 -4.65625 L 2 -3.421875 L 4.65625 -3.421875 L 4.65625 -2.390625 L 2 -2.390625 L 2 -1.0625 Z M 5.109375 -1.0625 "/></g></g></g><g fill="#58595b" fill-opacity="1"><g transform="translate(206.28171, 252.136292)"><g><path d="M 5.921875 -5.71875 L 5.921875 0 L 4.84375 0 L 1.984375 -3.46875 L 1.984375 0 L 0.671875 0 L 0.671875 -5.71875 L 1.765625 -5.71875 L 4.609375 -2.25 L 4.609375 -5.71875 Z M 5.921875 -5.71875 "/></g></g></g><g fill="#58595b" fill-opacity="1"><g transform="translate(213.614615, 252.136292)"><g><path d="M 2.5625 0.09375 C 2.101562 0.09375 1.660156 0.0351562 1.234375 -0.078125 C 0.816406 -0.203125 0.484375 -0.363281 0.234375 -0.5625 L 0.671875 -1.5625 C 0.921875 -1.382812 1.210938 -1.238281 1.546875 -1.125 C 1.890625 -1.019531 2.226562 -0.96875 2.5625 -0.96875 C 2.9375 -0.96875 3.210938 -1.019531 3.390625 -1.125 C 3.578125 -1.238281 3.671875 -1.390625 3.671875 -1.578125 C 3.671875 -1.710938 3.613281 -1.820312 3.5 -1.90625 C 3.394531 -2 3.257812 -2.070312 3.09375 -2.125 C 2.9375 -2.1875 2.710938 -2.25 2.421875 -2.3125 C 1.984375 -2.414062 1.625 -2.519531 1.34375 -2.625 C 1.070312 -2.726562 0.835938 -2.894531 0.640625 -3.125 C 0.441406 -3.351562 0.34375 -3.65625 0.34375 -4.03125 C 0.34375 -4.363281 0.429688 -4.664062 0.609375 -4.9375 C 0.785156 -5.207031 1.054688 -5.421875 1.421875 -5.578125 C 1.785156 -5.734375 2.226562 -5.8125 2.75 -5.8125 C 3.113281 -5.8125 3.46875 -5.769531 3.8125 -5.6875 C 4.164062 -5.601562 4.472656 -5.476562 4.734375 -5.3125 L 4.328125 -4.3125 C 3.796875 -4.601562 3.269531 -4.75 2.75 -4.75 C 2.375 -4.75 2.097656 -4.6875 1.921875 -4.5625 C 1.742188 -4.445312 1.65625 -4.296875 1.65625 -4.109375 C 1.65625 -3.910156 1.753906 -3.757812 1.953125 -3.65625 C 2.160156 -3.5625 2.476562 -3.472656 2.90625 -3.390625 C 3.34375 -3.285156 3.695312 -3.179688 3.96875 -3.078125 C 4.25 -2.972656 4.488281 -2.804688 4.6875 -2.578125 C 4.882812 -2.359375 4.984375 -2.054688 4.984375 -1.671875 C 4.984375 -1.347656 4.890625 -1.050781 4.703125 -0.78125 C 4.523438 -0.507812 4.253906 -0.296875 3.890625 -0.140625 C 3.523438 0.015625 3.082031 0.09375 2.5625 0.09375 Z M 2.5625 0.09375 "/></g></g></g><g fill="#58595b" fill-opacity="1"><g transform="translate(219.559325, 252.136292)"><g><path d="M 5.109375 -1.0625 L 5.109375 0 L 0.671875 0 L 0.671875 -5.71875 L 5 -5.71875 L 5 -4.65625 L 2 -4.65625 L 2 -3.421875 L 4.65625 -3.421875 L 4.65625 -2.390625 L 2 -2.390625 L 2 -1.0625 Z M 5.109375 -1.0625 "/></g></g></g><g fill="#58595b" fill-opacity="1"><g transform="translate(225.771902, 252.136292)"><g/></g></g><g fill="#58595b" fill-opacity="1"><g transform="translate(153.346813, 234.231664)"><g><path d="M 14.125 0 L 11.03125 0 L 4.671875 -8.5 L 4.671875 0 L 1.375 0 L 1.375 -13.8125 L 4.484375 -13.8125 L 10.859375 -5.28125 L 10.859375 -13.8125 L 14.125 -13.8125 Z M 14.125 0 "/></g></g></g><g fill="#58595b" fill-opacity="1"><g transform="translate(168.848808, 234.231664)"><g><path d="M 12.203125 -11.046875 L 4.890625 -11.046875 L 4.890625 -8.3125 L 11.484375 -8.3125 L 11.484375 -5.546875 L 4.890625 -5.546875 L 4.890625 -2.765625 L 12.40625 -2.765625 L 12.40625 0 L 1.375 0 L 1.375 -13.8125 L 12.203125 -13.8125 Z M 12.203125 -11.046875 "/></g></g></g><g fill="#58595b" fill-opacity="1"><g transform="translate(182.141863, 234.231664)"><g><path d="M 6.6875 -13.96875 C 8.75 -13.96875 10.566406 -13.457031 12.140625 -12.4375 L 10.8125 -9.6875 C 10.09375 -10.113281 9.316406 -10.457031 8.484375 -10.71875 C 7.660156 -10.988281 6.960938 -11.125 6.390625 -11.125 C 5.378906 -11.125 4.875 -10.789062 4.875 -10.125 C 4.875 -9.6875 5.125 -9.335938 5.625 -9.078125 C 6.125 -8.816406 6.734375 -8.585938 7.453125 -8.390625 C 8.171875 -8.203125 8.882812 -7.972656 9.59375 -7.703125 C 10.3125 -7.429688 10.921875 -6.992188 11.421875 -6.390625 C 11.921875 -5.785156 12.171875 -5.023438 12.171875 -4.109375 C 12.171875 -2.773438 11.648438 -1.734375 10.609375 -0.984375 C 9.578125 -0.242188 8.257812 0.125 6.65625 0.125 C 5.507812 0.125 4.375 -0.0703125 3.25 -0.46875 C 2.132812 -0.863281 1.160156 -1.40625 0.328125 -2.09375 L 1.703125 -4.796875 C 2.398438 -4.191406 3.21875 -3.691406 4.15625 -3.296875 C 5.101562 -2.910156 5.945312 -2.71875 6.6875 -2.71875 C 7.25 -2.71875 7.6875 -2.816406 8 -3.015625 C 8.320312 -3.222656 8.484375 -3.523438 8.484375 -3.921875 C 8.484375 -4.304688 8.300781 -4.625 7.9375 -4.875 C 7.582031 -5.132812 7.132812 -5.328125 6.59375 -5.453125 C 6.050781 -5.578125 5.460938 -5.742188 4.828125 -5.953125 C 4.203125 -6.171875 3.617188 -6.40625 3.078125 -6.65625 C 2.535156 -6.90625 2.082031 -7.300781 1.71875 -7.84375 C 1.363281 -8.382812 1.1875 -9.039062 1.1875 -9.8125 C 1.1875 -11.070312 1.6875 -12.078125 2.6875 -12.828125 C 3.695312 -13.585938 5.03125 -13.96875 6.6875 -13.96875 Z M 6.6875 -13.96875 "/></g></g></g><g fill="#58595b" fill-opacity="1"><g transform="translate(194.843248, 234.231664)"><g><path d="M 11.9375 -10.984375 L 7.78125 -10.984375 L 7.78125 0 L 4.265625 0 L 4.265625 -10.984375 L 0.140625 -10.984375 L 0.140625 -13.828125 L 11.9375 -13.828125 Z M 11.9375 -10.984375 "/></g></g></g><g fill="#58595b" fill-opacity="1"><g transform="translate(206.893784, 234.231664)"><g><path d="M 10.5625 -2.546875 L 4.515625 -2.546875 L 3.515625 0 L -0.09375 0 L 5.859375 -13.8125 L 9.46875 -13.8125 L 15.296875 0 L 11.546875 0 Z M 9.53125 -5.203125 L 7.5625 -10.328125 L 5.546875 -5.203125 Z M 9.53125 -5.203125 "/></g></g></g><g clip-path="url(#64b85cf7ec)"><path fill="#58595b" d="M 148.171875 103.15625 L 227.273438 103.15625 L 227.273438 201.59375 L 148.171875 201.59375 Z M 148.171875 103.15625 " fill-opacity="1" fill-rule="nonzero"/></g><g clip-path="url(#75be2c79bc)"><path fill="#f5f5f5" d="M 168.402344 122.65625 L 207.074219 122.65625 L 207.074219 201.757812 L 168.402344 201.757812 Z M 168.402344 122.65625 " fill-opacity="1" fill-rule="nonzero"/></g><g clip-path="url(#438a98aa7e)"><g clip-path="url(#51d8a91fdd)"><path fill="#58595b" d="M 175.347656 176.617188 L 175.347656 201.367188 L 199.761719 201.367188 L 199.761719 176.617188 Z M 175.347656 176.617188 " fill-opacity="1" fill-rule="nonzero"/></g></g></svg>