<svg xmlns="http://www.w3.org/2000/svg" viewBox="0 0 298 476"><defs><style>.cls-1{fill:#536774;opacity:0.43;}.cls-2{fill:#fff;}</style></defs><title>Asset 11</title><g id="Layer_2" data-name="Layer 2"><g id="Layer_1-2" data-name="Layer 1"><rect class="cls-1" width="298" height="476" rx="58" ry="58"/><path class="cls-2" d="M109,182.5c34.75-4.31,69.14,13.54,84.76,45.1,7.93,16,10.78,34.84,5.82,52.18a66,66,0,0,1-32.12,39.79c-16,8.57-35.52,10.43-52.05,2.27C99.42,314,88,297.87,86.52,280a41.75,41.75,0,0,1,27.21-42.46c18.23-6.51,39,2.24,44.44,21.54,3,10.67-.3,22.22-9.39,28.9s-22,6.89-29.81-1.72c-8.18-9-6.54-24.82,6.23-28.56a12.87,12.87,0,0,1,15.09,5.83c3.65,6.57.21,14-7.11,15.41-1.89.36-1.09,3.26.8,2.89,9.24-1.77,13.51-11.66,8.91-19.82s-14.7-9.91-22.48-5.52c-19.23,10.83-6.8,38.48,12.5,39.44C154.56,297,167.28,273.85,160,255c-7.71-19.85-30.27-27.43-49.31-19.51S80.77,263.74,84,283.91a55.54,55.54,0,0,0,38.19,43.84c42.32,13.06,84.05-25.82,82.88-67.74-1.38-49.42-47.94-86.48-96.06-80.51-1.89.23-1.91,3.24,0,3Z"/></g></g></svg>