<svg xmlns="http://www.w3.org/2000/svg" viewBox="0 0 298 476"><defs><style>.cls-1{fill:#536774;opacity:0.43;}.cls-2,.cls-3{fill:none;stroke:#fff;stroke-miterlimit:10;}.cls-2{stroke-width:5px;}.cls-3{stroke-width:25px;}.cls-4{fill:#fff;}</style></defs><title>Asset 10</title><g id="Layer_2" data-name="Layer 2"><g id="Layer_1-2" data-name="Layer 1"><rect class="cls-1" width="298" height="476" rx="58" ry="58"/><polygon class="cls-2" points="67.5 306.53 67.5 267.17 178 208.47 178 306.53 67.5 306.53"/><line class="cls-3" x1="148.3" y1="247.83" x2="148.3" y2="276.84"/><polyline class="cls-2" points="178 233 230.5 262.5 230.5 306.5 177.5 306.5"/><path class="cls-4" d="M27.5,301.5a126.64,126.64,0,0,1,7.9-46.69,130,130,0,0,1,62.4-70.24A124.52,124.52,0,0,1,144,171.43a125.78,125.78,0,0,1,47.69,5.48,130.59,130.59,0,0,1,73.21,58.9,126.91,126.91,0,0,1,15.62,44.7,135.21,135.21,0,0,0-17.72-43.43,132.55,132.55,0,0,0-31.35-34.4c-24.62-19-56.15-28.91-87-26.27a121,121,0,0,0-44.46,12.38,128.74,128.74,0,0,0-37.07,27.76A132.43,132.43,0,0,0,37.68,255.7,134.83,134.83,0,0,0,27.5,301.5Z"/></g></g></svg>