<svg xmlns="http://www.w3.org/2000/svg" xmlns:xlink="http://www.w3.org/1999/xlink" viewBox="0 0 1950.55 1812.78"><defs><style>.cls-1,.cls-5{fill:#fbc8b1;}.cls-1{opacity:0.71;}.cls-2{opacity:0.3;}.cls-3{fill:#bdccd4;}.cls-4{opacity:0.62;}.cls-6{opacity:0.43;}.cls-7{fill:#536774;}</style></defs><title>Asset 4</title><g id="Layer_2" data-name="Layer 2"><g id="Layer_1-2" data-name="Layer 1"><path class="cls-1" d="M127.3,1010.86C69,1073.16,9.48,1182,19.3,1310.86c7.41,97.29,46.47,102.66,36,180-12.1,89.38-69.51,120.92-52,182,14.13,49.28,64.67,74.75,85,85,58.16,29.32,106.9,19.64,204,11,207-18.43,240.89,2.8,255-24,40.66-77.25-233.5-267.93-195-411,1.9-7.07,13.36-46.69,24-102,12.76-66.35,12-91.1,9-111-1.5-9.91-7.54-43.75-30-81-12.53-20.79-55.32-91.74-117-95C191.34,942.38,155.86,980.32,127.3,1010.86Z"/><g class="cls-2"><path class="cls-3" d="M966.3,137.86c143.18-73.61,139.4-114.83,212-132,144.52-34.18,328.59,89.14,320,162-6.51,55.26-125.23,93.34-206,102-144,15.43-204.81-58.59-282-16-81.92,45.2-69.21,159.37-116,162-47.55,2.67-116.43-112.09-86-184C826.28,189.35,867.64,188.59,966.3,137.86Z"/></g><g class="cls-4"><path class="cls-5" d="M1649.51,829.12c-66.37,21.9-237.43-13.56-256-114.55C1378.75,634,1488.68,472.13,1567.49,518s250.24,156.34,326.68,117.38c66.64-34,88.83-223.78-15.56-326.68-99.27-97.85-346.13-102-336.58-5.66C1556.22,446.15,1857.78,760.39,1649.51,829.12Z"/></g><g class="cls-6"><path class="cls-7" d="M1742.3,94.86c-77.77-94.19-244.33-99.55-358-36-77.07,43.09-178.5,145.05-158,272,25,155.13,208.88,203.27,220,206,9.81,2.41,176.3,40.49,278-70,65.92-71.62,66-163.68,66-200C1790.32,228.05,1790.37,153.08,1742.3,94.86Z"/></g><image width="2480" height="3508" transform="matrix(-0.24, 0, 0, 0.24, 720.5, 970.86)" xlink:href="C:\Users\Ruupessh\Downloads\Human1.png"/></g></g></svg>