<?xml version="1.0" encoding="UTF-8"?>
<svg version="1.1" xmlns="http://www.w3.org/2000/svg" width="96" height="96">
<path d="M0 0 C0.83265381 0.00523682 1.66530762 0.01047363 2.52319336 0.01586914 C3.42231445 0.0190918 4.32143555 0.02231445 5.24780273 0.02563477 C6.66609375 0.03820313 6.66609375 0.03820313 8.11303711 0.05102539 C9.06243164 0.05553711 10.01182617 0.06004883 10.98999023 0.06469727 C13.34356776 0.07652429 15.69702188 0.09300514 18.05053711 0.11352539 C19.45834239 3.4260084 20.48047626 6.5830576 21.17553711 10.11352539 C21.34311523 10.93852539 21.51069336 11.76352539 21.68334961 12.61352539 C22.05631468 15.15286202 22.07562739 17.55111357 22.05053711 20.11352539 C22.90022568 20.11130478 23.74991425 20.10908417 24.62535095 20.10679626 C32.61590436 20.08679526 40.60644941 20.07155223 48.59702206 20.06171322 C52.70547996 20.05648493 56.81391725 20.04938826 60.92236328 20.03808594 C64.88400539 20.02725514 68.84562763 20.02124815 72.8072834 20.01864815 C74.32202022 20.01679425 75.8367559 20.01317429 77.3514843 20.00779533 C79.46595524 20.00058232 81.58034305 19.99953456 83.69482422 20 C84.9006163 19.99777939 86.10640839 19.99555878 87.34873962 19.99327087 C90.05053711 20.11352539 90.05053711 20.11352539 91.05053711 21.11352539 C90.88917371 28.92183755 89.14110244 36.721649 87.67553711 44.36352539 C87.46670898 45.50821289 87.25788086 46.65290039 87.04272461 47.83227539 C84.52002451 61.06106859 84.52002451 61.06106859 80.09594727 64.73803711 C75.63920771 66.75096565 71.51241474 66.5424105 66.67553711 66.51196289 C65.17240967 66.51626816 65.17240967 66.51626816 63.63891602 66.5206604 C61.52416416 66.52269825 59.40939334 66.51718796 57.29467773 66.50463867 C54.0618262 66.48858146 50.83022486 66.50449727 47.59741211 66.52368164 C45.54011769 66.52169916 43.48282405 66.51785539 41.42553711 66.51196289 C39.97848389 66.52107193 39.97848389 66.52107193 38.50219727 66.53036499 C29.59400559 66.43722416 29.59400559 66.43722416 26.05053711 63.11352539 C23.0448378 57.64486518 21.97235356 51.8467158 20.78881836 45.76196289 C20.5932988 44.78490387 20.39777924 43.80784485 20.19633484 42.80117798 C19.78687159 40.74619412 19.38115887 38.69045976 18.97900391 36.6340332 C18.36328852 33.48980923 17.73421105 30.34847586 17.10327148 27.20727539 C16.70599486 25.20482824 16.30948406 23.20222897 15.91381836 21.19946289 C15.72636551 20.26290863 15.53891266 19.32635437 15.34577942 18.36141968 C15.17527573 17.48345734 15.00477203 16.605495 14.82910156 15.70092773 C14.67826614 14.93372406 14.52743073 14.16652039 14.37202454 13.37606812 C14.05053711 11.11352539 14.05053711 11.11352539 14.05053711 6.11352539 C8.77053711 6.11352539 3.49053711 6.11352539 -1.94946289 6.11352539 C-2.27946289 4.46352539 -2.60946289 2.81352539 -2.94946289 1.11352539 C-1.94946289 0.11352539 -1.94946289 0.11352539 0 0 Z M24.05053711 26.11352539 C24.8496068 33.30515263 25.95341438 40.02218482 27.48803711 47.05102539 C27.70524414 48.0906543 27.92245117 49.1302832 28.14624023 50.20141602 C28.36086914 51.19206055 28.57549805 52.18270508 28.79663086 53.20336914 C28.98926514 54.09918701 29.18189941 54.99500488 29.38037109 55.91796875 C29.91762482 58.29385968 29.91762482 58.29385968 32.05053711 60.11352539 C34.00750455 60.42530621 34.00750455 60.42530621 36.26904297 60.38818359 C37.57566139 60.40248161 37.57566139 60.40248161 38.90867615 60.41706848 C40.32274498 60.41570137 40.32274498 60.41570137 41.76538086 60.41430664 C42.73206192 60.41859177 43.69874298 60.42287689 44.69471741 60.42729187 C46.74162003 60.43304151 48.7885431 60.43353079 50.83544922 60.42919922 C53.97195224 60.42604158 57.10751035 60.44948261 60.24389648 60.47485352 C62.23022342 60.47712662 64.21655289 60.47782995 66.20288086 60.47680664 C67.14356918 60.48601639 68.08425751 60.49522614 69.05345154 60.50471497 C70.3647982 60.49537178 70.3647982 60.49537178 71.70263672 60.48583984 C72.47159775 60.48646927 73.24055878 60.48709869 74.03282166 60.48774719 C76.59978783 60.01165692 77.46405498 59.15178657 79.05053711 57.11352539 C79.92048754 54.40650687 79.92048754 54.40650687 80.43725586 51.30883789 C80.65317383 50.16801758 80.8690918 49.02719727 81.09155273 47.85180664 C81.30489258 46.65942383 81.51823242 45.46704102 81.73803711 44.23852539 C81.96297852 43.05387695 82.18791992 41.86922852 82.41967773 40.64868164 C83.34283753 35.67091424 84.05053711 31.19878635 84.05053711 26.11352539 C64.25053711 26.11352539 44.45053711 26.11352539 24.05053711 26.11352539 Z " fill="#1B1E1E" transform="translate(3.949462890625,0.886474609375)"/>
<path d="M0 0 C2.375 1.625 2.375 1.625 4 4 C4.61195145 7.6717087 4.48706506 9.28813568 2.375 12.375 C-0.71186432 14.48706506 -2.3282913 14.61195145 -6 14 C-8.375 12.375 -8.375 12.375 -10 10 C-10.61195145 6.3282913 -10.48706506 4.71186432 -8.375 1.625 C-5.28813568 -0.48706506 -3.6717087 -0.61195145 0 0 Z M-4 6 C-4 6.66 -4 7.32 -4 8 C-3.34 8 -2.68 8 -2 8 C-2 7.34 -2 6.68 -2 6 C-2.66 6 -3.32 6 -4 6 Z " fill="#1B1E1E" transform="translate(83,77)"/>
<path d="M0 0 C2.375 1.625 2.375 1.625 4 4 C4.61195145 7.6717087 4.48706506 9.28813568 2.375 12.375 C-0.71186432 14.48706506 -2.3282913 14.61195145 -6 14 C-8.375 12.375 -8.375 12.375 -10 10 C-10.61195145 6.3282913 -10.48706506 4.71186432 -8.375 1.625 C-5.28813568 -0.48706506 -3.6717087 -0.61195145 0 0 Z M-4 6 C-4 6.66 -4 7.32 -4 8 C-3.34 8 -2.68 8 -2 8 C-2 7.34 -2 6.68 -2 6 C-2.66 6 -3.32 6 -4 6 Z " fill="#1B1E1E" transform="translate(39,77)"/>
</svg>
