<?xml version="1.0" encoding="UTF-8"?>
<svg version="1.1" xmlns="http://www.w3.org/2000/svg" width="80" height="80">
<path d="M0 0 C4.1724031 0.51006598 6.08024151 1.59504611 8.98828125 4.59765625 C9.69404297 5.31630859 10.39980469 6.03496094 11.12695312 6.77539062 C11.84818359 7.53013672 12.56941406 8.28488281 13.3125 9.0625 C14.05306641 9.82111328 14.79363281 10.57972656 15.55664062 11.36132812 C17.38043834 13.23219159 19.19424304 15.11174492 21 17 C24.16577674 15.61299325 26.16025983 14.02157405 28.49609375 11.48828125 C29.45805664 10.47604492 29.45805664 10.47604492 30.43945312 9.44335938 C31.7755247 8.01847757 33.10364227 6.58609708 34.42382812 5.14648438 C35.06642578 4.47552734 35.70902344 3.80457031 36.37109375 3.11328125 C36.94786865 2.49235596 37.52464355 1.87143066 38.11889648 1.23168945 C40 0 40 0 42.72680664 0.30541992 C43.47696045 0.53463135 44.22711426 0.76384277 45 1 C44.48993402 5.1724031 43.40495389 7.08024151 40.40234375 9.98828125 C39.32436523 11.04692383 39.32436523 11.04692383 38.22460938 12.12695312 C37.46986328 12.84818359 36.71511719 13.56941406 35.9375 14.3125 C35.17888672 15.05306641 34.42027344 15.79363281 33.63867188 16.55664062 C31.76780841 18.38043834 29.88825508 20.19424304 28 22 C29.38700675 25.16577674 30.97842595 27.16025983 33.51171875 29.49609375 C34.18654297 30.13740234 34.86136719 30.77871094 35.55664062 31.43945312 C36.98152243 32.7755247 38.41390292 34.10364227 39.85351562 35.42382812 C40.52447266 36.06642578 41.19542969 36.70902344 41.88671875 37.37109375 C42.81810669 38.2362561 42.81810669 38.2362561 43.76831055 39.11889648 C45 41 45 41 44.69458008 43.72680664 C44.35076294 44.85203735 44.35076294 44.85203735 44 46 C39.8275969 45.48993402 37.91975849 44.40495389 35.01171875 41.40234375 C34.30595703 40.68369141 33.60019531 39.96503906 32.87304688 39.22460938 C32.15181641 38.46986328 31.43058594 37.71511719 30.6875 36.9375 C29.94693359 36.17888672 29.20636719 35.42027344 28.44335938 34.63867188 C26.61956166 32.76780841 24.80575696 30.88825508 23 29 C19.83422326 30.38700675 17.83974017 31.97842595 15.50390625 34.51171875 C14.86259766 35.18654297 14.22128906 35.86136719 13.56054688 36.55664062 C12.2244753 37.98152243 10.89635773 39.41390292 9.57617188 40.85351562 C8.93357422 41.52447266 8.29097656 42.19542969 7.62890625 42.88671875 C6.7637439 43.81810669 6.7637439 43.81810669 5.88110352 44.76831055 C4 46 4 46 1.27319336 45.69458008 C0.14796265 45.35076294 0.14796265 45.35076294 -1 45 C-0.48993402 40.8275969 0.59504611 38.91975849 3.59765625 36.01171875 C4.31630859 35.30595703 5.03496094 34.60019531 5.77539062 33.87304688 C6.53013672 33.15181641 7.28488281 32.43058594 8.0625 31.6875 C8.82111328 30.94693359 9.57972656 30.20636719 10.36132812 29.44335938 C12.23219159 27.61956166 14.11174492 25.80575696 16 24 C14.61299325 20.83422326 13.02157405 18.83974017 10.48828125 16.50390625 C9.47604492 15.54194336 9.47604492 15.54194336 8.44335938 14.56054688 C7.01847757 13.2244753 5.58609708 11.89635773 4.14648438 10.57617188 C3.47552734 9.93357422 2.80457031 9.29097656 2.11328125 8.62890625 C1.49235596 8.05213135 0.87143066 7.47535645 0.23168945 6.88110352 C-1 5 -1 5 -0.69458008 2.27319336 C-0.46536865 1.52303955 -0.23615723 0.77288574 0 0 Z " fill="#878383" transform="translate(18,17)"/>
</svg>
