<?xml version="1.0" encoding="UTF-8"?>
<svg version="1.1" xmlns="http://www.w3.org/2000/svg" width="512" height="512">
<path d="M0 0 C0.66012969 -0.00205263 1.32025938 -0.00410527 2.000393 -0.0062201 C4.22799345 -0.01190623 6.45553239 -0.01043087 8.68313885 -0.00901413 C10.29012473 -0.01159684 11.89710996 -0.01460973 13.5040943 -0.01801753 C17.93234957 -0.0261018 22.36058865 -0.02787789 26.78885043 -0.028615 C31.55992261 -0.03046306 36.33098633 -0.03800912 41.10205364 -0.04475021 C51.53996135 -0.05834394 61.97786522 -0.0643598 72.41578031 -0.06876087 C78.93012941 -0.0715214 85.44447702 -0.07575839 91.95882511 -0.08026505 C109.98635579 -0.09245881 128.01388527 -0.10275808 146.04141998 -0.10614014 C147.19567364 -0.1063597 148.34992729 -0.10657927 149.53915833 -0.10680549 C150.69621099 -0.10702377 151.85326364 -0.10724204 153.04537851 -0.10746694 C155.39010131 -0.10791041 157.73482412 -0.10835697 160.07954693 -0.10880661 C161.24261632 -0.10902804 162.40568572 -0.10924947 163.60399964 -0.10947761 C182.45616451 -0.11342687 201.30829077 -0.13088433 220.16044072 -0.15416613 C239.50411848 -0.17786264 258.84777685 -0.1903412 278.19146937 -0.19150805 C289.05691676 -0.19242575 299.92231383 -0.19820173 310.78774738 -0.21632767 C320.03871402 -0.23170568 329.28961477 -0.23686272 338.54059175 -0.22858956 C343.26230186 -0.22467496 347.9838792 -0.22565207 352.70557308 -0.23964691 C357.02658273 -0.25233728 361.3473592 -0.25123133 365.6683683 -0.2390562 C367.2329802 -0.23709074 368.79760834 -0.24021662 370.36219738 -0.24890056 C372.48713588 -0.25994951 374.61124509 -0.25253642 376.73616028 -0.24050903 C377.91698317 -0.24110612 379.09780606 -0.24170321 380.31441146 -0.24231839 C385.07887453 0.30686834 388.36064554 2.03222035 391.86934185 5.25642776 C394.16619202 9.1695799 394.7563821 12.61383653 394.55684185 17.13142776 C392.94629081 21.87360584 390.68228571 24.34675316 386.55684185 27.13142776 C383.1916576 28.25315585 380.66168861 28.25910865 377.1136837 28.26285553 C376.12348916 28.26593448 376.12348916 28.26593448 375.1132907 28.26907563 C372.88569025 28.27476176 370.65815131 28.2732864 368.43054485 28.27186966 C366.82355897 28.27445237 365.21657374 28.27746526 363.6095894 28.28087306 C359.18133413 28.28895733 354.75309505 28.29073342 350.32483327 28.29147053 C345.55376109 28.29331859 340.78269737 28.30086465 336.01163006 28.30760574 C325.57372235 28.32119947 315.13581848 28.32721533 304.69790339 28.3316164 C298.18355429 28.33437693 291.66920668 28.33861392 285.15485859 28.34312057 C267.12732791 28.35531434 249.09979843 28.36561361 231.07226372 28.36899567 C229.91801006 28.36921523 228.76375641 28.3694348 227.57452537 28.36966102 C226.41747272 28.3698793 225.26042006 28.37009757 224.06830519 28.37032247 C221.72358239 28.37076594 219.37885958 28.3712125 217.03413677 28.37166214 C215.87106738 28.37188357 214.70799798 28.372105 213.50968406 28.37233314 C194.65751919 28.3762824 175.80539293 28.39373986 156.95324298 28.41702166 C137.60956522 28.44071817 118.26590685 28.45319673 98.92221433 28.45436358 C88.05676694 28.45528128 77.19136987 28.46105726 66.32593632 28.4791832 C57.07496968 28.49456121 47.82406893 28.49971825 38.57309195 28.49144509 C33.85138184 28.48753049 29.1298045 28.4885076 24.40811062 28.50250244 C20.08710097 28.51519281 15.7663245 28.51408686 11.4453154 28.50191173 C9.8807035 28.49994627 8.31607536 28.50307215 6.75148632 28.51175609 C4.62654782 28.52280504 2.50243861 28.51539195 0.37752342 28.50336456 C-0.80329947 28.50396165 -1.98412236 28.50455874 -3.20072776 28.50517392 C-7.96519083 27.95598719 -11.24696184 26.23063518 -14.75565815 23.00642776 C-17.05250832 19.09327563 -17.6426984 15.649019 -17.44315815 11.13142776 C-15.83260711 6.38924969 -13.56860201 3.91610237 -9.44315815 1.13142776 C-6.0779739 0.00969968 -3.54800491 0.00374688 0 0 Z " fill="#FFFFFF" transform="translate(67.44315814971924,369.8685722351074)"/>
<path d="M0 0 C0.66012969 -0.00205263 1.32025938 -0.00410527 2.000393 -0.0062201 C4.22799345 -0.01190623 6.45553239 -0.01043087 8.68313885 -0.00901413 C10.29012473 -0.01159684 11.89710996 -0.01460973 13.5040943 -0.01801753 C17.93234957 -0.0261018 22.36058865 -0.02787789 26.78885043 -0.028615 C31.55992261 -0.03046306 36.33098633 -0.03800912 41.10205364 -0.04475021 C51.53996135 -0.05834394 61.97786522 -0.0643598 72.41578031 -0.06876087 C78.93012941 -0.0715214 85.44447702 -0.07575839 91.95882511 -0.08026505 C109.98635579 -0.09245881 128.01388527 -0.10275808 146.04141998 -0.10614014 C147.19567364 -0.1063597 148.34992729 -0.10657927 149.53915833 -0.10680549 C150.69621099 -0.10702377 151.85326364 -0.10724204 153.04537851 -0.10746694 C155.39010131 -0.10791041 157.73482412 -0.10835697 160.07954693 -0.10880661 C161.24261632 -0.10902804 162.40568572 -0.10924947 163.60399964 -0.10947761 C182.45616451 -0.11342687 201.30829077 -0.13088433 220.16044072 -0.15416613 C239.50411848 -0.17786264 258.84777685 -0.1903412 278.19146937 -0.19150805 C289.05691676 -0.19242575 299.92231383 -0.19820173 310.78774738 -0.21632767 C320.03871402 -0.23170568 329.28961477 -0.23686272 338.54059175 -0.22858956 C343.26230186 -0.22467496 347.9838792 -0.22565207 352.70557308 -0.23964691 C357.02658273 -0.25233728 361.3473592 -0.25123133 365.6683683 -0.2390562 C367.2329802 -0.23709074 368.79760834 -0.24021662 370.36219738 -0.24890056 C372.48713588 -0.25994951 374.61124509 -0.25253642 376.73616028 -0.24050903 C377.91698317 -0.24110612 379.09780606 -0.24170321 380.31441146 -0.24231839 C385.07887453 0.30686834 388.36064554 2.03222035 391.86934185 5.25642776 C394.16619202 9.1695799 394.7563821 12.61383653 394.55684185 17.13142776 C392.94629081 21.87360584 390.68228571 24.34675316 386.55684185 27.13142776 C383.1916576 28.25315585 380.66168861 28.25910865 377.1136837 28.26285553 C376.12348916 28.26593448 376.12348916 28.26593448 375.1132907 28.26907563 C372.88569025 28.27476176 370.65815131 28.2732864 368.43054485 28.27186966 C366.82355897 28.27445237 365.21657374 28.27746526 363.6095894 28.28087306 C359.18133413 28.28895733 354.75309505 28.29073342 350.32483327 28.29147053 C345.55376109 28.29331859 340.78269737 28.30086465 336.01163006 28.30760574 C325.57372235 28.32119947 315.13581848 28.32721533 304.69790339 28.3316164 C298.18355429 28.33437693 291.66920668 28.33861392 285.15485859 28.34312057 C267.12732791 28.35531434 249.09979843 28.36561361 231.07226372 28.36899567 C229.91801006 28.36921523 228.76375641 28.3694348 227.57452537 28.36966102 C226.41747272 28.3698793 225.26042006 28.37009757 224.06830519 28.37032247 C221.72358239 28.37076594 219.37885958 28.3712125 217.03413677 28.37166214 C215.87106738 28.37188357 214.70799798 28.372105 213.50968406 28.37233314 C194.65751919 28.3762824 175.80539293 28.39373986 156.95324298 28.41702166 C137.60956522 28.44071817 118.26590685 28.45319673 98.92221433 28.45436358 C88.05676694 28.45528128 77.19136987 28.46105726 66.32593632 28.4791832 C57.07496968 28.49456121 47.82406893 28.49971825 38.57309195 28.49144509 C33.85138184 28.48753049 29.1298045 28.4885076 24.40811062 28.50250244 C20.08710097 28.51519281 15.7663245 28.51408686 11.4453154 28.50191173 C9.8807035 28.49994627 8.31607536 28.50307215 6.75148632 28.51175609 C4.62654782 28.52280504 2.50243861 28.51539195 0.37752342 28.50336456 C-0.80329947 28.50396165 -1.98412236 28.50455874 -3.20072776 28.50517392 C-7.96519083 27.95598719 -11.24696184 26.23063518 -14.75565815 23.00642776 C-17.05250832 19.09327563 -17.6426984 15.649019 -17.44315815 11.13142776 C-15.83260711 6.38924969 -13.56860201 3.91610237 -9.44315815 1.13142776 C-6.0779739 0.00969968 -3.54800491 0.00374688 0 0 Z " fill="#FFFFFF" transform="translate(67.44315814971924,241.86857223510742)"/>
<path d="M0 0 C0.66012969 -0.00205263 1.32025938 -0.00410527 2.000393 -0.0062201 C4.22799345 -0.01190623 6.45553239 -0.01043087 8.68313885 -0.00901413 C10.29012473 -0.01159684 11.89710996 -0.01460973 13.5040943 -0.01801753 C17.93234957 -0.0261018 22.36058865 -0.02787789 26.78885043 -0.028615 C31.55992261 -0.03046306 36.33098633 -0.03800912 41.10205364 -0.04475021 C51.53996135 -0.05834394 61.97786522 -0.0643598 72.41578031 -0.06876087 C78.93012941 -0.0715214 85.44447702 -0.07575839 91.95882511 -0.08026505 C109.98635579 -0.09245881 128.01388527 -0.10275808 146.04141998 -0.10614014 C147.19567364 -0.1063597 148.34992729 -0.10657927 149.53915833 -0.10680549 C150.69621099 -0.10702377 151.85326364 -0.10724204 153.04537851 -0.10746694 C155.39010131 -0.10791041 157.73482412 -0.10835697 160.07954693 -0.10880661 C161.24261632 -0.10902804 162.40568572 -0.10924947 163.60399964 -0.10947761 C182.45616451 -0.11342687 201.30829077 -0.13088433 220.16044072 -0.15416613 C239.50411848 -0.17786264 258.84777685 -0.1903412 278.19146937 -0.19150805 C289.05691676 -0.19242575 299.92231383 -0.19820173 310.78774738 -0.21632767 C320.03871402 -0.23170568 329.28961477 -0.23686272 338.54059175 -0.22858956 C343.26230186 -0.22467496 347.9838792 -0.22565207 352.70557308 -0.23964691 C357.02658273 -0.25233728 361.3473592 -0.25123133 365.6683683 -0.2390562 C367.2329802 -0.23709074 368.79760834 -0.24021662 370.36219738 -0.24890056 C372.48713588 -0.25994951 374.61124509 -0.25253642 376.73616028 -0.24050903 C377.91698317 -0.24110612 379.09780606 -0.24170321 380.31441146 -0.24231839 C385.07887453 0.30686834 388.36064554 2.03222035 391.86934185 5.25642776 C394.16619202 9.1695799 394.7563821 12.61383653 394.55684185 17.13142776 C392.94629081 21.87360584 390.68228571 24.34675316 386.55684185 27.13142776 C383.1916576 28.25315585 380.66168861 28.25910865 377.1136837 28.26285553 C376.12348916 28.26593448 376.12348916 28.26593448 375.1132907 28.26907563 C372.88569025 28.27476176 370.65815131 28.2732864 368.43054485 28.27186966 C366.82355897 28.27445237 365.21657374 28.27746526 363.6095894 28.28087306 C359.18133413 28.28895733 354.75309505 28.29073342 350.32483327 28.29147053 C345.55376109 28.29331859 340.78269737 28.30086465 336.01163006 28.30760574 C325.57372235 28.32119947 315.13581848 28.32721533 304.69790339 28.3316164 C298.18355429 28.33437693 291.66920668 28.33861392 285.15485859 28.34312057 C267.12732791 28.35531434 249.09979843 28.36561361 231.07226372 28.36899567 C229.91801006 28.36921523 228.76375641 28.3694348 227.57452537 28.36966102 C226.41747272 28.3698793 225.26042006 28.37009757 224.06830519 28.37032247 C221.72358239 28.37076594 219.37885958 28.3712125 217.03413677 28.37166214 C215.87106738 28.37188357 214.70799798 28.372105 213.50968406 28.37233314 C194.65751919 28.3762824 175.80539293 28.39373986 156.95324298 28.41702166 C137.60956522 28.44071817 118.26590685 28.45319673 98.92221433 28.45436358 C88.05676694 28.45528128 77.19136987 28.46105726 66.32593632 28.4791832 C57.07496968 28.49456121 47.82406893 28.49971825 38.57309195 28.49144509 C33.85138184 28.48753049 29.1298045 28.4885076 24.40811062 28.50250244 C20.08710097 28.51519281 15.7663245 28.51408686 11.4453154 28.50191173 C9.8807035 28.49994627 8.31607536 28.50307215 6.75148632 28.51175609 C4.62654782 28.52280504 2.50243861 28.51539195 0.37752342 28.50336456 C-0.80329947 28.50396165 -1.98412236 28.50455874 -3.20072776 28.50517392 C-7.96519083 27.95598719 -11.24696184 26.23063518 -14.75565815 23.00642776 C-17.05250832 19.09327563 -17.6426984 15.649019 -17.44315815 11.13142776 C-15.83260711 6.38924969 -13.56860201 3.91610237 -9.44315815 1.13142776 C-6.0779739 0.00969968 -3.54800491 0.00374688 0 0 Z " fill="#FFFFFF" transform="translate(67.44315814971924,113.86857223510742)"/>
</svg>
